<svg version="1.1" xmlns="http://www.w3.org/2000/svg" style="display: block;" viewBox="0 0 2048 1048" width="729" height="373" preserveAspectRatio="none">
<defs>
	<linearGradient id="Gradient1" gradientUnits="userSpaceOnUse" x1="149.902" y1="880.287" x2="70.5689" y2="953.361">
		<stop class="stop0" offset="0" stop-opacity="1" stop-color="rgb(73,71,73)"/>
		<stop class="stop1" offset="1" stop-opacity="1" stop-color="rgb(98,96,97)"/>
	</linearGradient>
	<linearGradient id="Gradient2" gradientUnits="userSpaceOnUse" x1="1017.45" y1="1025.87" x2="1017.56" y2="1035.97">
		<stop class="stop0" offset="0" stop-opacity="1" stop-color="rgb(65,67,63)"/>
		<stop class="stop1" offset="1" stop-opacity="1" stop-color="rgb(96,90,96)"/>
	</linearGradient>
</defs>
<path transform="translate(0,0)" fill="rgb(254,254,254)" d="M 0 0 L 2048 0 L 2048 1048 L 0 1048 L 0 0 z"/>
<path transform="translate(0,0)" fill="rgb(254,254,254)" d="M 14.1513 662.38 C 12.5378 570.422 14.0962 473.919 14.1535 381.635 L 14.1059 295.462 C 13.9354 262.37 12.03 229.386 19.3349 196.957 C 28.8073 155.903 49.4765 118.28 79.0459 88.2678 C 114.226 51.6065 160.622 27.7178 210.899 20.3788 C 227.589 17.9458 248.924 17.1803 266.079 17.0711 C 307.539 16.8073 349.122 16.9357 390.595 16.9377 L 624.444 16.9677 L 1325.05 16.9688 L 1663.09 16.9893 L 1757.97 16.9624 C 1784 16.9272 1816.17 16.4453 1841.8 20.2303 C 1889.42 27.2632 1933.66 49.001 1968.33 82.4056 C 2015.33 127.894 2039.63 187.482 2039.92 252.553 C 2040.05 282.252 2039.47 311.985 2039.56 341.729 L 2039.54 643.681 L 2039.43 753.195 C 2039.49 784.079 2041.07 822.808 2034.75 852.6 C 2025.38 895.44 2004.08 934.755 1973.32 966.005 C 1930.54 1009.34 1872.48 1034.17 1811.6 1035.19 C 1800.22 1035.31 1766.02 1035.43 1755.86 1034.17 L 1430.08 1034.1 C 1421.99 1035.07 1407.66 1034.93 1399.32 1035.02 C 1379.35 1035.18 1359.37 1035.24 1339.39 1035.18 L 1164 1035.16 L 817.769 1034.54 C 751.418 1034.44 686.462 1035.49 619.934 1034.26 C 588.706 1032.79 544.502 1034.17 512.443 1034.17 L 298.361 1034.14 C 281.542 1035.27 246.397 1035.58 229.665 1034.89 C 171.356 1032.5 111.748 1002.14 72.8769 958.879 C 12.2858 891.444 9.35004 819.277 13.5593 733.989 C 14.9144 712.756 14.1253 684.086 14.1513 662.38 z"/>
<path transform="translate(0,0)" fill="rgb(254,254,254)" d="M 1030.3 25.3519 C 1141.07 24.6107 1251.83 24.5772 1362.6 25.2515 L 1373.93 25.1344 C 1372.29 126.32 1371.87 227.522 1372.68 328.718 L 1372.69 790.26 L 1372.68 963.175 C 1372.72 983.81 1374.21 1008.22 1373.66 1028.06 C 1387.39 1028.07 1407.49 1027.59 1420.7 1028.65 C 1417.15 1029.63 1417.12 1029.05 1415.01 1031.41 C 1418.3 1034.59 1425.64 1033.65 1430.08 1034.1 C 1421.99 1035.07 1407.66 1034.93 1399.32 1035.02 C 1379.35 1035.18 1359.37 1035.24 1339.39 1035.18 L 1164 1035.16 L 817.769 1034.54 C 751.418 1034.44 686.462 1035.49 619.934 1034.26 C 622.423 1033.67 621.531 1034.34 622.908 1032.55 L 624.954 1032.85 L 621.849 1031.52 L 621.853 1028.8 C 637.575 1027.89 664.476 1027.88 680.189 1028.3 C 681.468 986.848 680.251 945.081 680.228 903.637 L 680.207 662.462 L 680.101 25.3626 L 690.351 25.148 L 914.078 25.1345 L 984.866 25.0822 C 995.418 25.0753 1013.02 24.5432 1022.92 25.449 L 1030.3 25.3519 z"/>
<path transform="translate(0,0)" fill="rgb(254,254,254)" d="M 680.101 25.3626 L 690.351 25.148 L 914.078 25.1345 L 984.866 25.0822 C 995.418 25.0753 1013.02 24.5432 1022.92 25.449 L 1022.85 216.83 C 1022.87 269.848 1022.29 324.278 1023.11 377.191 C 942.257 379.299 877.739 445.322 877.496 526.203 C 877.253 607.084 941.373 673.494 1022.21 676.088 C 1025.1 676.181 1028 676.19 1030.89 676.115 C 1029.68 695.576 1029.64 926.391 1031.37 929.453 L 1034.74 930.384 C 1032 931.442 1031.81 930.946 1030.8 932.892 C 1029.65 941.499 1030.28 952.427 1029.99 961.235 C 1029.28 982.993 1030.83 1006.32 1030.49 1027.82 C 1037.74 1029.13 1057.59 1028.86 1065.58 1028.84 C 1085.5 1028.91 1105.42 1028.68 1125.33 1028.15 L 1128.39 1028.71 C 1170.03 1027.09 1220.47 1028.65 1262.82 1028.59 L 1329.63 1028.46 C 1338.78 1028.44 1354.06 1027.88 1362.65 1028.45 L 1373.66 1028.06 C 1387.39 1028.07 1407.49 1027.59 1420.7 1028.65 C 1417.15 1029.63 1417.12 1029.05 1415.01 1031.41 C 1418.3 1034.59 1425.64 1033.65 1430.08 1034.1 C 1421.99 1035.07 1407.66 1034.93 1399.32 1035.02 C 1379.35 1035.18 1359.37 1035.24 1339.39 1035.18 L 1164 1035.16 L 817.769 1034.54 C 751.418 1034.44 686.462 1035.49 619.934 1034.26 C 622.423 1033.67 621.531 1034.34 622.908 1032.55 L 624.954 1032.85 L 621.849 1031.52 L 621.853 1028.8 C 637.575 1027.89 664.476 1027.88 680.189 1028.3 C 681.468 986.848 680.251 945.081 680.228 903.637 L 680.207 662.462 L 680.101 25.3626 z"/>
<path transform="translate(0,0)" fill="rgb(254,254,254)" d="M 992.55 939.17 C 1004.25 935.061 1009.52 934.57 1022.06 933.239 C 1022.36 949.71 1022.63 966.072 1022.65 982.547 C 1022.67 996.518 1021.46 1014.13 1023.26 1027.9 C 1025.56 1027.62 1028.15 1027.77 1030.49 1027.82 C 1037.74 1029.13 1057.59 1028.86 1065.58 1028.84 C 1085.5 1028.91 1105.42 1028.68 1125.33 1028.15 L 1128.39 1028.71 C 1170.03 1027.09 1220.47 1028.65 1262.82 1028.59 L 1329.63 1028.46 C 1338.78 1028.44 1354.06 1027.88 1362.65 1028.45 L 1373.66 1028.06 C 1387.39 1028.07 1407.49 1027.59 1420.7 1028.65 C 1417.15 1029.63 1417.12 1029.05 1415.01 1031.41 C 1418.3 1034.59 1425.64 1033.65 1430.08 1034.1 C 1421.99 1035.07 1407.66 1034.93 1399.32 1035.02 C 1379.35 1035.18 1359.37 1035.24 1339.39 1035.18 L 1164 1035.16 L 817.769 1034.54 C 751.418 1034.44 686.462 1035.49 619.934 1034.26 C 622.423 1033.67 621.531 1034.34 622.908 1032.55 L 624.954 1032.85 L 621.849 1031.52 L 621.853 1028.8 C 637.575 1027.89 664.476 1027.88 680.189 1028.3 C 686.562 1029.45 733.327 1029.38 741.612 1029.04 C 768.099 1027.94 802.648 1030.28 828.33 1028.69 C 853.409 1028.23 878.601 1028.5 903.69 1028.34 C 910.609 1028.29 917.886 1028.25 924.763 1028.88 L 927.794 1028.19 C 932.53 986.273 952.132 954.919 992.55 939.17 z"/>
<path transform="translate(0,0)" fill="url(#Gradient2)" d="M 1030.49 1027.82 C 1037.74 1029.13 1057.59 1028.86 1065.58 1028.84 C 1085.5 1028.91 1105.42 1028.68 1125.33 1028.15 L 1128.39 1028.71 C 1170.03 1027.09 1220.47 1028.65 1262.82 1028.59 L 1329.63 1028.46 C 1338.78 1028.44 1354.06 1027.88 1362.65 1028.45 L 1373.66 1028.06 C 1387.39 1028.07 1407.49 1027.59 1420.7 1028.65 C 1417.15 1029.63 1417.12 1029.05 1415.01 1031.41 C 1418.3 1034.59 1425.64 1033.65 1430.08 1034.1 C 1421.99 1035.07 1407.66 1034.93 1399.32 1035.02 C 1379.35 1035.18 1359.37 1035.24 1339.39 1035.18 L 1164 1035.16 L 817.769 1034.54 C 751.418 1034.44 686.462 1035.49 619.934 1034.26 C 622.423 1033.67 621.531 1034.34 622.908 1032.55 L 624.954 1032.85 L 621.849 1031.52 L 621.853 1028.8 C 637.575 1027.89 664.476 1027.88 680.189 1028.3 C 686.562 1029.45 733.327 1029.38 741.612 1029.04 C 768.099 1027.94 802.648 1030.28 828.33 1028.69 C 853.409 1028.23 878.601 1028.5 903.69 1028.34 C 910.609 1028.29 917.886 1028.25 924.763 1028.88 L 927.794 1028.19 C 943.703 1029.11 961.827 1028.8 977.883 1028.81 C 991.565 1028.81 1009.77 1029.19 1023.26 1027.9 C 1025.56 1027.62 1028.15 1027.77 1030.49 1027.82 z"/>
<path transform="translate(0,0)" fill="rgb(47,126,160)" d="M 680.101 25.3626 L 690.351 25.148 L 690.306 704.07 C 690.306 811.339 691.541 921.13 690.134 1028.23 L 777.226 1028.24 C 793.008 1028.25 812.887 1027.82 828.33 1028.69 C 802.648 1030.28 768.099 1027.94 741.612 1029.04 C 733.327 1029.38 686.562 1029.45 680.189 1028.3 C 681.468 986.848 680.251 945.081 680.228 903.637 L 680.207 662.462 L 680.101 25.3626 z"/>
<path transform="translate(0,0)" fill="rgb(210,23,23)" d="M 1022.21 676.088 C 1025.1 676.181 1028 676.19 1030.89 676.115 C 1029.68 695.576 1029.64 926.391 1031.37 929.453 L 1034.74 930.384 C 1032 931.442 1031.81 930.946 1030.8 932.892 C 1029.65 941.499 1030.28 952.427 1029.99 961.235 C 1029.28 982.993 1030.83 1006.32 1030.49 1027.82 C 1028.15 1027.77 1025.56 1027.62 1023.26 1027.9 C 1021.46 1014.13 1022.67 996.518 1022.65 982.547 C 1022.63 966.072 1022.36 949.71 1022.06 933.239 C 1009.52 934.57 1004.25 935.061 992.55 939.17 L 989.247 937.569 C 998.857 933.77 1011.27 931.675 1021.56 929.694 C 1023.6 901.655 1022.84 863.511 1022.86 834.861 C 1023.06 781.936 1022.84 729.01 1022.21 676.088 z"/>
<path transform="translate(0,0)" fill="rgb(216,41,34)" d="M 989.247 937.569 L 992.55 939.17 C 952.132 954.919 932.53 986.273 927.794 1028.19 L 924.763 1028.88 C 925.57 990.548 952.308 949.736 989.247 937.569 z"/>
<path transform="translate(0,0)" fill="rgb(210,23,23)" d="M 725.085 768.14 C 729.066 764.277 734.863 762.946 740.13 764.685 C 745.246 766.374 749.052 770.695 750.081 775.983 C 751.111 781.272 749.204 786.704 745.096 790.19 C 740.339 794.224 733.573 794.869 728.14 791.804 C 724.05 789.496 721.287 785.395 720.686 780.737 C 720.085 776.08 721.715 771.411 725.085 768.14 z"/>
<path transform="translate(0,0)" fill="rgb(216,41,34)" d="M 740.13 764.685 C 745.246 766.374 749.052 770.695 750.081 775.983 C 751.111 781.272 749.204 786.704 745.096 790.19 C 742.633 787.024 744.94 785.976 746.019 782.928 C 748.716 775.31 743.158 771.448 740.445 765.397 L 740.13 764.685 z"/>
<path transform="translate(0,0)" fill="rgb(216,41,34)" d="M 725.085 768.14 L 725.878 771.353 C 723.54 778.875 722.906 782.273 728.879 788.271 C 728.235 789.759 727.898 790.183 728.14 791.804 C 724.05 789.496 721.287 785.395 720.686 780.737 C 720.085 776.08 721.715 771.411 725.085 768.14 z"/>
<path transform="translate(0,0)" fill="rgb(254,254,254)" d="M 725.878 771.353 L 728.502 770.697 C 731.133 774.352 730.101 784.029 728.879 788.271 C 722.906 782.273 723.54 778.875 725.878 771.353 z"/>
<path transform="translate(0,0)" fill="rgb(210,23,23)" d="M 729.363 260.348 C 732.692 259.958 738.8 258.926 741.639 261.212 C 753.12 269.512 753.111 284.847 739.365 288.587 C 736.957 289.075 735.797 289.398 733.311 289.361 C 716.583 285.337 716.807 270.416 729.363 260.348 z"/>
<path transform="translate(0,0)" fill="rgb(216,41,34)" d="M 729.363 260.348 C 729.735 263.101 730.115 264.202 729.198 266.838 C 729.357 270.957 729.958 280.878 729.501 284.509 C 730.723 285.948 732.398 287.766 733.311 289.361 C 716.583 285.337 716.807 270.416 729.363 260.348 z"/>
<path transform="translate(0,0)" fill="rgb(254,254,254)" d="M 729.501 284.509 C 725.169 281.075 723.296 276.207 724.526 270.827 C 726.957 267.506 725.701 268.466 729.198 266.838 C 729.357 270.957 729.958 280.878 729.501 284.509 z"/>
<path transform="translate(0,0)" fill="rgb(216,41,34)" d="M 741.639 261.212 C 753.12 269.512 753.111 284.847 739.365 288.587 L 739.872 287.077 C 741.768 285.56 742.478 285.262 743.369 283.105 C 747.112 275.881 746.911 272.849 742.75 265.896 C 741.776 264.61 741.874 263.02 741.639 261.212 z"/>
<path transform="translate(0,0)" fill="rgb(254,254,254)" d="M 743.369 283.105 C 739.872 279.241 739.668 269.588 742.75 265.896 C 746.911 272.849 747.112 275.881 743.369 283.105 z"/>
<path transform="translate(0,0)" fill="rgb(47,126,160)" d="M 1023.11 377.191 C 1025.63 377.125 1028.16 377.123 1030.68 377.185 C 1111.76 379.178 1176.46 445.448 1176.52 526.55 C 1176.58 607.653 1111.96 674.011 1030.89 676.115 C 1028 676.19 1025.1 676.181 1022.21 676.088 C 941.373 673.494 877.253 607.084 877.496 526.203 C 877.739 445.322 942.257 379.299 1023.11 377.191 z"/>
<path transform="translate(0,0)" fill="rgb(254,254,254)" d="M 1021.98 379.928 C 1024.99 379.831 1027.99 379.827 1030.99 379.915 C 1110.34 382.241 1173.46 447.244 1173.45 526.631 C 1173.45 606.018 1110.32 671.01 1030.96 673.323 C 1028 673.409 1025.03 673.406 1022.07 673.313 C 942.868 670.82 879.945 605.905 879.922 526.662 C 879.898 447.419 942.783 382.467 1021.98 379.928 z"/>
<path transform="translate(0,0)" fill="rgb(210,23,23)" d="M 1021.98 379.928 C 1024.99 379.831 1027.99 379.827 1030.99 379.915 C 1029.71 415.582 1030.62 451.359 1030.21 487.044 C 1030.11 495.358 1033.67 512.502 1028.01 518.24 C 1024.5 518.407 1024.71 519.021 1022.63 517.145 C 1021.64 502.308 1022.17 483.133 1022.14 467.774 L 1021.98 379.928 z"/>
<path transform="translate(0,0)" fill="rgb(210,23,23)" d="M 1022.07 673.313 L 1022.2 584.982 C 1022.22 571.609 1022 558.203 1022.18 544.851 C 1022.23 540.741 1022.73 534.314 1027.78 534.731 C 1029.69 536.318 1030.23 536.296 1030.3 539.107 C 1031.5 583.695 1029.41 628.786 1030.96 673.323 C 1028 673.409 1025.03 673.406 1022.07 673.313 z"/>
<path transform="translate(0,0)" fill="rgb(47,126,160)" d="M 1024.13 521.461 C 1026.99 520.042 1030.46 521.172 1031.93 524.002 C 1033.41 526.833 1032.34 530.321 1029.54 531.847 C 1027.68 532.86 1025.42 532.79 1023.62 531.663 C 1021.83 530.535 1020.78 528.527 1020.89 526.412 C 1021 524.296 1022.24 522.403 1024.13 521.461 z"/>
<path transform="translate(0,0)" fill="rgb(47,126,160)" d="M 1362.6 25.2515 L 1373.93 25.1344 C 1372.29 126.32 1371.87 227.522 1372.68 328.718 L 1372.69 790.26 L 1372.68 963.175 C 1372.72 983.81 1374.21 1008.22 1373.66 1028.06 L 1362.65 1028.45 L 1362.6 25.2515 z"/>
<path transform="translate(0,0)" fill="rgb(254,254,254)" d="M 1030.8 932.892 L 1031.57 933.069 C 1038.36 934.592 1046.65 934.224 1052.9 936.051 C 1096.91 948.908 1119.93 984.272 1125.33 1028.15 C 1105.42 1028.68 1085.5 1028.91 1065.58 1028.84 C 1057.59 1028.86 1037.74 1029.13 1030.49 1027.82 C 1030.83 1006.32 1029.28 982.993 1029.99 961.235 C 1030.28 952.427 1029.65 941.499 1030.8 932.892 z"/>
<path transform="translate(0,0)" fill="rgb(210,23,23)" d="M 1022.92 25.449 L 1030.3 25.3519 L 1030.36 290.935 C 1030.48 319.439 1030.07 348.781 1030.68 377.185 C 1028.16 377.123 1025.63 377.125 1023.11 377.191 C 1022.29 324.278 1022.87 269.848 1022.85 216.83 L 1022.92 25.449 z"/>
<path transform="translate(0,0)" fill="rgb(216,41,34)" d="M 1034.74 930.384 C 1089.3 935.993 1124.35 974.57 1128.39 1028.71 L 1125.33 1028.15 C 1119.93 984.272 1096.91 948.908 1052.9 936.051 C 1046.65 934.224 1038.36 934.592 1031.57 933.069 L 1030.8 932.892 C 1031.81 930.946 1032 931.442 1034.74 930.384 z"/>
<path transform="translate(0,0)" fill="rgb(210,23,23)" d="M 1312.92 260.668 C 1316.18 259.447 1319.76 259.413 1323.05 260.572 C 1327.92 262.29 1331.54 266.419 1332.62 271.47 C 1333.69 276.521 1332.06 281.768 1328.31 285.32 C 1324.2 289.217 1318.22 290.429 1312.92 288.443 C 1307.12 286.275 1303.29 280.74 1303.29 274.556 C 1303.29 268.371 1307.12 262.836 1312.92 260.668 z"/>
<path transform="translate(0,0)" fill="rgb(216,41,34)" d="M 1312.92 288.443 C 1307.12 286.275 1303.29 280.74 1303.29 274.556 C 1303.29 268.371 1307.12 262.836 1312.92 260.668 L 1313.8 262.854 L 1312.87 264.209 C 1313.3 269.539 1313.99 279.97 1311.89 284.787 L 1313.99 285.162 C 1313.89 286.914 1314.03 287.035 1312.92 288.443 z"/>
<path transform="translate(0,0)" fill="rgb(254,254,254)" d="M 1312.87 264.209 C 1313.3 269.539 1313.99 279.97 1311.89 284.787 C 1304.85 276.322 1305.86 271.921 1312.87 264.209 z"/>
<path transform="translate(0,0)" fill="rgb(216,41,34)" d="M 1323.05 260.572 C 1327.92 262.29 1331.54 266.419 1332.62 271.47 C 1333.69 276.521 1332.06 281.768 1328.31 285.32 L 1325.65 283.457 C 1321.97 279.531 1322 270.049 1324.74 265.539 L 1323.05 260.572 z"/>
<path transform="translate(0,0)" fill="rgb(254,254,254)" d="M 1325.65 283.457 C 1321.97 279.531 1322 270.049 1324.74 265.539 C 1329.57 272.246 1329.82 276.118 1325.65 283.457 z"/>
<path transform="translate(0,0)" fill="rgb(210,23,23)" d="M 1328.45 789.475 C 1322.99 794.671 1314.48 794.908 1308.73 790.025 C 1302.98 785.142 1301.84 776.71 1306.09 770.473 C 1310.33 764.237 1318.59 762.204 1325.24 765.76 C 1329.42 767.994 1332.28 772.1 1332.91 776.797 C 1333.55 781.494 1331.89 786.21 1328.45 789.475 z"/>
<path transform="translate(0,0)" fill="rgb(216,41,34)" d="M 1325.24 765.76 C 1329.42 767.994 1332.28 772.1 1332.91 776.797 C 1333.55 781.494 1331.89 786.21 1328.45 789.475 C 1327.25 787.368 1324.82 787.753 1323.48 784.586 C 1320.65 777.93 1322.89 772.082 1325.24 765.76 z"/>
<path transform="translate(0,0)" fill="rgb(254,254,254)" d="M 1311.35 769.489 L 1312.91 771.137 C 1313.97 776.74 1313.63 782.154 1312.49 787.708 L 1310.89 788.657 C 1306.05 780.258 1305.61 777.346 1311.35 769.489 z"/>
<path transform="translate(0,0)" fill="rgb(254,254,254)" d="M 156.674 44.8394 C 161.117 41.2243 188.404 33.5992 194.629 32.0842 C 229.746 23.5375 267.44 25.0603 303.383 25.081 L 408.814 25.1046 L 582.605 25.0951 C 614.577 25.097 648.3 24.5893 680.101 25.3626 L 680.207 662.462 L 680.228 903.637 C 680.251 945.081 681.468 986.848 680.189 1028.3 C 664.476 1027.88 637.575 1027.89 621.853 1028.8 L 621.849 1031.52 L 624.954 1032.85 L 622.908 1032.55 C 621.531 1034.34 622.423 1033.67 619.934 1034.26 C 588.706 1032.79 544.502 1034.17 512.443 1034.17 L 298.361 1034.14 C 281.542 1035.27 246.397 1035.58 229.665 1034.89 C 171.356 1032.5 111.748 1002.14 72.8769 958.879 C 12.2858 891.444 9.35004 819.277 13.5593 733.989 C 15.8258 734.927 16.6845 735.463 18.3838 737.234 L 18.9908 734.338 L 19.6728 734.339 L 19.8845 447.739 L 19.8886 329.284 C 19.8831 280.815 16.7305 228.619 31.367 182.31 C 50.8205 120.76 91.1837 77.1546 148.107 47.845 C 151.296 46.5065 153.352 45.8252 156.674 44.8394 z"/>
<path transform="translate(0,0)" fill="rgb(254,254,254)" d="M 19.6728 734.339 L 19.8845 447.739 L 19.8886 329.284 C 19.8831 280.815 16.7305 228.619 31.367 182.31 C 50.8205 120.76 91.1837 77.1546 148.107 47.845 L 148.675 674.12 L 148.096 1005.5 L 156.485 1009.06 C 189.145 1024.06 222.128 1027.39 257.497 1028.05 C 266.483 1028.22 283.426 1028.06 291.488 1028.93 C 287.464 1030.25 286.089 1030.51 281.883 1031.08 C 285.2 1030.67 295.004 1033.07 298.361 1034.14 C 281.542 1035.27 246.397 1035.58 229.665 1034.89 C 171.356 1032.5 111.748 1002.14 72.8769 958.879 C 12.2858 891.444 9.35004 819.277 13.5593 733.989 C 15.8258 734.927 16.6845 735.463 18.3838 737.234 L 18.9908 734.338 L 19.6728 734.339 z"/>
<path transform="translate(0,0)" fill="url(#Gradient1)" d="M 298.361 1034.14 C 281.542 1035.27 246.397 1035.58 229.665 1034.89 C 171.356 1032.5 111.748 1002.14 72.8769 958.879 C 12.2858 891.444 9.35004 819.277 13.5593 733.989 C 15.8258 734.927 16.6845 735.463 18.3838 737.234 L 18.9908 734.338 L 19.6728 734.339 C 19.8546 824.987 17.0167 889.491 86.6401 961.989 C 99.9162 975.813 129.934 999.383 148.096 1005.5 L 156.485 1009.06 C 189.145 1024.06 222.128 1027.39 257.497 1028.05 C 266.483 1028.22 283.426 1028.06 291.488 1028.93 C 287.464 1030.25 286.089 1030.51 281.883 1031.08 C 285.2 1030.67 295.004 1033.07 298.361 1034.14 z"/>
<path transform="translate(0,0)" fill="rgb(210,23,23)" d="M 148.107 47.845 C 151.296 46.5065 153.352 45.8252 156.674 44.8394 L 156.455 289.51 C 156.461 346.681 155.396 407.724 156.75 464.635 C 176.522 468.351 191.971 474.949 203.637 492.334 C 212.769 506.077 216.038 522.897 212.716 539.059 C 209.487 555.1 199.971 569.181 186.291 578.159 C 176.149 584.719 168.312 586.358 156.699 588.698 C 156.365 633.997 156.287 679.298 156.463 724.597 L 156.485 1009.06 L 148.096 1005.5 L 148.675 674.12 L 148.107 47.845 z"/>
<path transform="translate(0,0)" fill="rgb(47,126,160)" d="M 156.648 467.758 C 194.866 473.655 218.016 504.132 208.68 543.163 C 206.368 552.826 199.689 561.487 193.323 568.952 C 180.457 580.174 172.75 582.355 156.617 586.489 C 155.844 548.525 155.924 505.706 156.648 467.758 z"/>
<path transform="translate(0,0)" fill="rgb(6,5,4)" d="M 291.488 1028.93 C 331.103 1028.26 371.757 1028.77 411.455 1028.79 L 621.853 1028.8 L 621.849 1031.52 L 624.954 1032.85 L 622.908 1032.55 C 621.531 1034.34 622.423 1033.67 619.934 1034.26 C 588.706 1032.79 544.502 1034.17 512.443 1034.17 L 298.361 1034.14 C 295.004 1033.07 285.2 1030.67 281.883 1031.08 C 286.089 1030.51 287.464 1030.25 291.488 1028.93 z"/>
<path transform="translate(0,0)" fill="rgb(216,41,34)" d="M 362.641 103.43 C 366.444 107.469 364.999 119.538 364.872 125.915 C 377.451 123.93 394.788 124.561 407.447 125.842 C 407.594 117.002 407.769 111.724 409.011 103.019 C 410.099 111.714 410.54 117.779 410.472 126.479 C 430.941 130.172 448.947 136.812 466.582 147.922 C 499.944 169.244 523.626 202.785 532.555 241.358 C 541.105 280.363 533.957 321.166 512.657 354.941 C 487.841 393.823 455.088 412.632 410.882 422.367 C 410.982 429.19 411.565 441.509 408.571 447.571 C 406.822 439.641 407.178 431.193 407.371 423.124 C 390.846 424.464 381.002 424.211 364.747 423.099 C 364.703 432.545 364.36 439.372 363.5 448.782 C 361.504 438.757 361.276 432.745 361.316 422.625 C 340.585 417.747 325.744 413.457 307.271 401.861 C 272.964 380.6 248.692 346.39 239.956 306.986 C 231.352 268.258 238.489 227.699 259.797 194.235 C 284.138 155.881 317.84 136.416 361.28 126.754 C 361.22 119.401 361.141 110.539 362.641 103.43 z"/>
<path transform="translate(0,0)" fill="rgb(254,254,254)" d="M 371.56 128.602 C 452.249 120.51 524.202 179.411 532.205 260.11 C 540.208 340.808 481.227 412.695 400.519 420.609 C 319.938 428.51 248.189 369.641 240.198 289.069 C 232.207 208.497 290.996 136.682 371.56 128.602 z"/>
<path transform="translate(0,0)" fill="rgb(210,23,23)" d="M 377.561 262.507 C 382.165 259.192 388.255 258.79 393.254 261.473 C 397.043 263.507 399.764 267.085 400.711 271.28 C 401.659 275.475 400.74 279.875 398.193 283.34 C 394.024 289.011 386.445 290.974 380.048 288.04 C 375.245 285.837 371.976 281.247 371.463 275.989 C 370.951 270.73 373.274 265.595 377.561 262.507 z"/>
<path transform="translate(0,0)" fill="rgb(216,41,34)" d="M 380.048 288.04 C 375.245 285.837 371.976 281.247 371.463 275.989 C 370.951 270.73 373.274 265.595 377.561 262.507 C 378.664 263.502 379.78 264.482 380.909 265.448 C 380.924 271.516 381.019 277.732 380.809 283.785 L 380.048 288.04 z"/>
<path transform="translate(0,0)" fill="rgb(254,254,254)" d="M 380.809 283.785 C 372.288 280.989 374.347 270.382 380.909 265.448 C 380.924 271.516 381.019 277.732 380.809 283.785 z"/>
<path transform="translate(0,0)" fill="rgb(216,41,34)" d="M 393.254 261.473 C 397.043 263.507 399.764 267.085 400.711 271.28 C 401.659 275.475 400.74 279.875 398.193 283.34 C 399.495 285.544 393.148 260.762 393.254 261.473 z"/>
<path transform="translate(0,0)" fill="rgb(216,41,34)" d="M 333.864 281.48 C 341.709 280.53 356.423 281.101 364.741 281.26 C 364.885 291.92 364.841 302.582 364.61 313.24 C 359.19 309.379 361.022 290.822 361.252 284.086 C 353.853 284.166 338.556 285.727 333.864 281.48 z"/>
<path transform="translate(0,0)" fill="rgb(216,41,34)" d="M 408.174 235.638 L 409.3 236.619 C 411.934 244.716 410.828 255.933 410.465 264.67 C 416.743 264.584 433.507 263.931 439.052 265.686 L 439.469 267.345 C 428.947 267.885 418.186 267.744 407.634 267.738 C 406.749 256.929 407.302 246.415 408.174 235.638 z"/>
<path transform="translate(0,0)" fill="rgb(216,41,34)" d="M 363.215 235.545 C 366.068 240.419 364.947 260.573 364.819 267.335 C 356.525 267.975 345.872 267.576 337.38 267.481 L 336.403 267.416 L 335.713 266.214 C 338.925 263.866 356.125 264.565 361.3 264.589 C 361.016 255.877 360.033 243.599 363.215 235.545 z"/>
<path transform="translate(0,0)" fill="rgb(216,41,34)" d="M 407.694 281.017 C 419.504 280.736 431.454 280.783 443.182 282.215 C 430.587 284.883 423.668 284.452 410.584 284.036 C 410.583 289.954 410.535 302.87 409.019 308.362 C 407.151 301.344 407.531 288.366 407.694 281.017 z"/>
<path transform="translate(0,0)" fill="rgb(216,41,34)" d="M 362.707 606.477 C 366.207 610.537 365.052 623.99 365.01 630.254 C 381.604 629.023 390.983 629.276 407.359 630.265 C 407.571 621.006 407.716 614.576 409.032 605.472 C 410.002 614.156 410.368 621.925 410.757 630.662 C 435.843 635.829 455.724 643.486 476.498 659.002 C 508.241 682.791 529.14 718.298 534.529 757.598 C 540.148 797.068 529.868 837.153 505.948 869.047 C 483.576 898.704 447.477 921.304 410.568 926.439 C 410.513 932.736 411.109 944.806 408.64 950.008 C 406.435 942.45 407.003 934.884 407.244 927.091 C 393.216 929.102 378.973 928.573 364.915 927.232 C 364.938 936.154 364.241 943.881 363.479 952.727 C 361.465 941.884 361.095 937.634 361.442 926.714 C 341.886 922.69 326.321 917.408 309.111 907.031 C 274.846 886.604 250.189 853.304 240.649 814.57 C 231.244 776.151 237.428 735.571 257.849 701.697 C 283.059 660.3 315.754 642.091 361.451 630.888 C 361.242 622.974 360.958 614.17 362.707 606.477 z"/>
<path transform="translate(0,0)" fill="rgb(254,254,254)" d="M 378.36 632.302 C 458.997 627.965 527.979 689.609 532.699 770.224 C 537.42 850.84 476.105 920.114 395.513 925.218 C 314.376 930.357 244.532 868.537 239.78 787.377 C 235.027 706.217 297.179 636.668 378.36 632.302 z"/>
<path transform="translate(0,0)" fill="rgb(210,23,23)" d="M 381.927 764.484 C 385.971 763.21 390.365 763.705 394.024 765.848 C 398.003 768.178 400.691 772.206 401.314 776.775 C 401.937 781.344 400.427 785.945 397.217 789.256 C 392.733 793.88 385.798 795.129 379.983 792.359 C 374.412 789.706 371.031 783.915 371.46 777.76 C 371.89 771.604 376.041 766.338 381.927 764.484 z"/>
<path transform="translate(0,0)" fill="rgb(216,41,34)" d="M 381.927 764.484 L 382.419 766.452 L 380.502 768.293 L 380.612 768.546 C 381.012 775.469 380.955 780.793 380.763 787.732 L 379.983 792.359 C 374.412 789.706 371.031 783.915 371.46 777.76 C 371.89 771.604 376.041 766.338 381.927 764.484 z"/>
<path transform="translate(0,0)" fill="rgb(254,254,254)" d="M 380.612 768.546 C 381.012 775.469 380.955 780.793 380.763 787.732 L 378.953 787.227 C 372.249 781.221 375.607 774.141 380.612 768.546 z"/>
<path transform="translate(0,0)" fill="rgb(216,41,34)" d="M 394.024 765.848 C 398.003 768.178 400.691 772.206 401.314 776.775 C 401.937 781.344 400.427 785.945 397.217 789.256 C 394.833 784.513 398.182 779.962 397.239 775.291 C 396.495 771.608 394.033 770.628 394.024 765.848 z"/>
<path transform="translate(0,0)" fill="rgb(216,41,34)" d="M 362.134 740.526 C 366.473 743.01 365.113 765.552 365.073 771.039 C 356.594 771.501 347.303 771.446 338.751 771.561 L 336.044 771.338 L 335.746 770.062 C 340.348 767.336 355.467 767.76 361.196 767.707 C 361.152 757.772 361.185 750.51 362.134 740.526 z"/>
<path transform="translate(0,0)" fill="rgb(216,41,34)" d="M 408.339 740.784 C 412.114 743.486 410.97 762.952 410.867 768.112 C 418.868 767.762 434.626 765.786 440.17 770.827 C 434.023 771.756 415.92 771.08 407.579 771.638 C 407.371 762.964 407.246 749.028 408.339 740.784 z"/>
<path transform="translate(0,0)" fill="rgb(216,41,34)" d="M 336.271 786.235 C 345.199 785.752 355.546 785.967 364.584 785.944 C 364.891 793.188 365.191 808.336 364.453 815.332 L 363.015 815.559 C 360.095 806.798 360.979 798.498 361.283 789.31 C 356.388 789.283 337.656 789.775 334.79 787.555 L 336.271 786.235 z"/>
<path transform="translate(0,0)" fill="rgb(210,23,23)" d="M 407.923 785.999 C 413.063 785.975 433.65 785.298 437.054 788.059 C 427.992 789.23 420.6 789.052 411.527 788.987 C 410.033 796.687 411.327 803.92 409.171 813.569 L 408.528 813.023 C 406.807 801.383 406.996 797.561 407.923 785.999 z"/>
<path transform="translate(0,0)" fill="rgb(254,254,254)" d="M 14.1513 662.38 C 12.5378 570.422 14.0962 473.919 14.1535 381.635 L 14.1059 295.462 C 13.9354 262.37 12.03 229.386 19.3349 196.957 C 28.8073 155.903 49.4765 118.28 79.0459 88.2678 C 114.226 51.6065 160.622 27.7178 210.899 20.3788 C 227.589 17.9458 248.924 17.1803 266.079 17.0711 C 307.539 16.8073 349.122 16.9357 390.595 16.9377 L 624.444 16.9677 L 1325.05 16.9688 L 1663.09 16.9893 L 1757.97 16.9624 C 1784 16.9272 1816.17 16.4453 1841.8 20.2303 C 1889.42 27.2632 1933.66 49.001 1968.33 82.4056 C 2015.33 127.894 2039.63 187.482 2039.92 252.553 C 2040.05 282.252 2039.47 311.985 2039.56 341.729 L 2039.54 643.681 L 2039.43 753.195 C 2039.49 784.079 2041.07 822.808 2034.75 852.6 C 2025.38 895.44 2004.08 934.755 1973.32 966.005 C 1930.54 1009.34 1872.48 1034.17 1811.6 1035.19 C 1800.22 1035.31 1766.02 1035.43 1755.86 1034.17 C 1759.87 1033.7 1760.7 1033.64 1764.42 1032.07 L 1764.86 1030.92 C 1761.73 1028.87 1757.35 1029.09 1753.52 1028.91 C 1758.44 1028.17 1784.31 1028.01 1790.27 1027.94 C 1832.36 1027.5 1856.85 1024.75 1896.26 1009.29 L 1904.91 1005.79 C 1903.18 959.34 1904.51 905.615 1904.51 858.641 L 1904.57 583.499 C 1903.76 567.485 1904.35 546.378 1904.36 530.093 L 1904.4 433.055 L 1904.39 131.88 C 1904.39 105.181 1904.35 78.4415 1904.57 51.741 C 1904.62 46.499 1900.14 45.4106 1896.07 43.9145 C 1842.16 21.9425 1804.11 24.5117 1747.3 25.0218 L 1675.13 25.1149 L 1373.93 25.1344 L 1362.6 25.2515 C 1251.83 24.5772 1141.07 24.6107 1030.3 25.3519 L 1022.92 25.449 C 1013.02 24.5432 995.418 25.0753 984.866 25.0822 L 914.078 25.1345 L 690.351 25.148 L 680.101 25.3626 C 648.3 24.5893 614.577 25.097 582.605 25.0951 L 408.814 25.1046 L 303.383 25.081 C 267.44 25.0603 229.746 23.5375 194.629 32.0842 C 188.404 33.5992 161.117 41.2243 156.674 44.8394 C 153.352 45.8252 151.296 46.5065 148.107 47.845 C 91.1837 77.1546 50.8205 120.76 31.367 182.31 C 16.7305 228.619 19.8831 280.815 19.8886 329.284 L 19.8845 447.739 L 19.6728 734.339 L 18.9908 734.338 L 18.3838 737.234 C 16.6845 735.463 15.8258 734.927 13.5593 733.989 C 14.9144 712.756 14.1253 684.086 14.1513 662.38 z"/>
<path transform="translate(0,0)" fill="rgb(91,89,91)" d="M 14.1513 662.38 C 12.5378 570.422 14.0962 473.919 14.1535 381.635 L 14.1059 295.462 C 13.9354 262.37 12.03 229.386 19.3349 196.957 C 28.8073 155.903 49.4765 118.28 79.0459 88.2678 C 114.226 51.6065 160.622 27.7178 210.899 20.3788 C 227.589 17.9458 248.924 17.1803 266.079 17.0711 C 307.539 16.8073 349.122 16.9357 390.595 16.9377 L 624.444 16.9677 L 1325.05 16.9688 L 1663.09 16.9893 L 1757.97 16.9624 C 1784 16.9272 1816.17 16.4453 1841.8 20.2303 C 1889.42 27.2632 1933.66 49.001 1968.33 82.4056 C 2015.33 127.894 2039.63 187.482 2039.92 252.553 C 2040.05 282.252 2039.47 311.985 2039.56 341.729 L 2039.54 643.681 L 2039.43 753.195 C 2039.49 784.079 2041.07 822.808 2034.75 852.6 C 2025.38 895.44 2004.08 934.755 1973.32 966.005 C 1930.54 1009.34 1872.48 1034.17 1811.6 1035.19 C 1800.22 1035.31 1766.02 1035.43 1755.86 1034.17 C 1759.87 1033.7 1760.7 1033.64 1764.42 1032.07 L 1764.86 1030.92 C 1761.73 1028.87 1757.35 1029.09 1753.52 1028.91 C 1758.44 1028.17 1784.31 1028.01 1790.27 1027.94 C 1832.36 1027.5 1856.85 1024.75 1896.26 1009.29 L 1904.91 1005.79 C 1920.87 998.711 1942.35 983.566 1955.44 972.306 C 1990.34 941.983 2014.97 901.57 2025.92 856.65 C 2035.75 816.416 2031.86 747.797 2031.88 703.42 L 2032.53 455.995 L 2032.62 373.841 C 2032.64 355.343 2032.28 334.81 2033.69 316.509 C 2034.98 302.203 2034.09 275.96 2033.94 260.799 C 2031.75 243.613 2031.92 227.789 2028.8 210.188 C 2019.12 155.67 1989.31 106.776 1945.29 73.1898 C 1934.05 64.4972 1917.63 53.747 1904.65 47.6195 L 1904.57 583.499 C 1903.76 567.485 1904.35 546.378 1904.36 530.093 L 1904.4 433.055 L 1904.39 131.88 C 1904.39 105.181 1904.35 78.4415 1904.57 51.741 C 1904.62 46.499 1900.14 45.4106 1896.07 43.9145 C 1842.16 21.9425 1804.11 24.5117 1747.3 25.0218 L 1675.13 25.1149 L 1373.93 25.1344 L 1362.6 25.2515 C 1251.83 24.5772 1141.07 24.6107 1030.3 25.3519 L 1022.92 25.449 C 1013.02 24.5432 995.418 25.0753 984.866 25.0822 L 914.078 25.1345 L 690.351 25.148 L 680.101 25.3626 C 648.3 24.5893 614.577 25.097 582.605 25.0951 L 408.814 25.1046 L 303.383 25.081 C 267.44 25.0603 229.746 23.5375 194.629 32.0842 C 188.404 33.5992 161.117 41.2243 156.674 44.8394 C 153.352 45.8252 151.296 46.5065 148.107 47.845 C 91.1837 77.1546 50.8205 120.76 31.367 182.31 C 16.7305 228.619 19.8831 280.815 19.8886 329.284 L 19.8845 447.739 L 19.6728 734.339 L 18.9908 734.338 L 18.3838 737.234 C 16.6845 735.463 15.8258 734.927 13.5593 733.989 C 14.9144 712.756 14.1253 684.086 14.1513 662.38 z"/>
<path transform="translate(0,0)" fill="rgb(6,5,4)" d="M 15.0958 662.109 C 13.8208 565.157 15.0922 465.398 15.156 368.227 L 15.1072 302.182 C 15.085 294.104 14.3879 266.469 16.2581 259.738 C 20.683 265.179 18.8939 305.886 18.8911 315.185 L 18.8735 414.789 L 18.7366 720.297 C 18.7629 723.961 18.6096 730.947 18.9908 734.338 L 18.3838 737.234 C 16.6845 735.463 15.8258 734.927 13.5593 733.989 C 14.9144 712.756 14.1253 684.086 14.1513 662.38 L 15.0958 662.109 z"/>
<path transform="translate(0,0)" fill="rgb(29,27,28)" d="M 14.1513 662.38 L 15.0958 662.109 C 15.5662 677.504 14.192 704.153 15.6278 717.868 L 16.6262 714.888 L 17.8704 714.64 L 18.7366 720.297 C 18.7629 723.961 18.6096 730.947 18.9908 734.338 L 18.3838 737.234 C 16.6845 735.463 15.8258 734.927 13.5593 733.989 C 14.9144 712.756 14.1253 684.086 14.1513 662.38 z"/>
<path transform="translate(0,0)" fill="rgb(29,27,28)" d="M 2033.94 260.799 C 2035.06 263.837 2035.51 266.636 2037.66 268.512 L 2037.72 267.656 C 2037.81 266.544 2037.91 266.165 2038.23 265.069 C 2039.2 271.706 2039.08 311.986 2038.08 318.232 L 2037.75 314.473 C 2034.88 316.534 2035.02 318.597 2034.62 322.166 L 2033.69 316.509 C 2034.98 302.203 2034.09 275.96 2033.94 260.799 z"/>
<path transform="translate(0,0)" fill="rgb(210,23,23)" d="M 1896.07 43.9145 C 1900.14 45.4106 1904.62 46.499 1904.57 51.741 C 1904.35 78.4415 1904.39 105.181 1904.39 131.88 L 1904.4 433.055 L 1904.36 530.093 C 1904.35 546.378 1903.76 567.485 1904.57 583.499 L 1904.51 858.641 C 1904.51 905.615 1903.18 959.34 1904.91 1005.79 L 1896.26 1009.29 L 1896.45 767.782 C 1896.45 708.95 1897.33 647.504 1896.12 588.845 C 1884.98 586.545 1876.55 584.258 1866.81 578.01 C 1853.16 569.321 1843.62 555.454 1840.39 539.593 C 1837.11 523.633 1840.19 507.02 1848.99 493.302 C 1860.92 475.047 1876.16 468.954 1896.49 464.681 C 1895.84 429.52 1896.43 392.513 1896.43 357.237 L 1896.43 147.411 C 1896.43 113.297 1896.88 77.8892 1896.07 43.9145 z"/>
<path transform="translate(0,0)" fill="rgb(47,126,160)" d="M 1892.22 468.182 L 1895.36 468.437 C 1898.46 473.342 1896.33 570.876 1896.27 586.066 C 1880.53 582.095 1874.95 580.561 1861.76 570.81 C 1853.46 562.786 1847.4 553.758 1844.31 542.524 C 1840.1 527.112 1842.34 510.649 1850.54 496.931 C 1860.65 479.775 1873.85 473.094 1892.22 468.182 z"/>
<path transform="translate(0,0)" fill="rgb(6,5,4)" d="M 1420.7 1028.65 C 1500.98 1029.64 1581.88 1028.24 1662.21 1028.8 C 1692.31 1029.02 1723.56 1028.23 1753.52 1028.91 C 1757.35 1029.09 1761.73 1028.87 1764.86 1030.92 L 1764.42 1032.07 C 1760.7 1033.64 1759.87 1033.7 1755.86 1034.17 L 1430.08 1034.1 C 1425.64 1033.65 1418.3 1034.59 1415.01 1031.41 C 1417.12 1029.05 1417.15 1029.63 1420.7 1028.65 z"/>
<path transform="translate(0,0)" fill="rgb(216,41,34)" d="M 1642.9 608.163 C 1643.64 608.51 1644.63 609.265 1645.34 609.758 C 1646.53 615.974 1646.13 623.748 1646.06 630.182 C 1662.76 628.778 1671.89 628.685 1688.54 630.266 C 1688.59 620.719 1688.75 614.869 1689.93 605.446 C 1691.03 614.456 1691.51 621.621 1691.92 630.706 C 1713.91 634.96 1732.2 641.973 1750.74 654.503 C 1783.83 676.659 1806.69 711.122 1814.24 750.224 C 1821.63 789.479 1813.22 830.064 1790.84 863.149 C 1767.12 897.761 1732.82 918.892 1691.67 926.527 C 1691.61 933.651 1691.86 943.454 1690.54 950.205 C 1686.82 943.943 1688 934.437 1688.27 927.081 C 1672.04 929.108 1661.82 928.547 1645.81 927.386 C 1645.87 931.092 1646.69 942.781 1644.04 945.061 C 1641.84 937.619 1642.43 934.43 1642.68 926.768 C 1623.1 922.76 1607.86 917.902 1590.56 907.544 C 1556.2 887.337 1531.37 854.198 1521.63 815.542 C 1511.91 776.667 1518.1 735.517 1538.83 701.224 C 1563.91 659.868 1597.06 641.874 1642.7 630.585 C 1642.36 622.215 1642.43 616.53 1642.9 608.163 z"/>
<path transform="translate(0,0)" fill="rgb(254,254,254)" d="M 1656.12 632.373 C 1736.85 626.376 1807.2 686.866 1813.38 767.587 C 1819.55 848.309 1759.22 918.794 1678.51 925.145 C 1597.55 931.517 1526.8 870.953 1520.6 789.98 C 1514.41 709.007 1575.13 638.387 1656.12 632.373 z"/>
<path transform="translate(0,0)" fill="rgb(210,23,23)" d="M 1652.48 781.94 C 1651.08 775.22 1654.46 768.414 1660.67 765.482 C 1666.88 762.55 1674.29 764.258 1678.58 769.611 C 1682.88 774.964 1682.95 782.566 1678.74 787.993 C 1674.54 793.42 1667.16 795.257 1660.91 792.433 C 1656.58 790.483 1653.45 786.583 1652.48 781.94 z"/>
<path transform="translate(0,0)" fill="rgb(254,254,254)" d="M 1655.21 778.061 C 1656.5 775.228 1657.36 772.4 1660.11 770.998 C 1663.4 773.366 1662.09 785.375 1661.11 789.06 L 1660.91 792.433 C 1656.58 790.483 1653.45 786.583 1652.48 781.94 C 1654.09 781.071 1654.41 779.77 1655.21 778.061 z"/>
<path transform="translate(0,0)" fill="rgb(216,41,34)" d="M 1652.48 781.94 C 1654.09 781.071 1654.41 779.77 1655.21 778.061 C 1656.95 783.075 1657.43 785.242 1661.11 789.06 L 1660.91 792.433 C 1656.58 790.483 1653.45 786.583 1652.48 781.94 z"/>
<path transform="translate(0,0)" fill="rgb(216,41,34)" d="M 1643.64 740.42 C 1647.61 744.083 1646.07 764.87 1645.95 771.053 C 1636.7 771.663 1625.71 771.511 1616.33 771.611 C 1615.44 771.003 1615.84 771.278 1615.47 769.713 C 1618.87 766.912 1636.73 767.764 1642.23 767.767 C 1642.05 758.645 1642.29 749.447 1643.64 740.42 z"/>
<path transform="translate(0,0)" fill="rgb(216,41,34)" d="M 1616.47 786.29 C 1625.8 785.719 1636.26 785.956 1645.69 785.967 C 1645.82 791.854 1646.46 811.071 1645.27 815.529 L 1643.68 815.038 C 1641.5 805.812 1642.01 798.657 1642.35 789.292 C 1635.09 789.206 1621.33 789.429 1614.69 788.198 L 1614.14 787.087 L 1616.47 786.29 z"/>
<path transform="translate(0,0)" fill="rgb(216,41,34)" d="M 1689.41 740.815 C 1693.15 743.602 1691.97 762.854 1691.86 768.036 C 1699.71 767.791 1711.65 766.963 1718.98 769.398 L 1719.41 771.076 C 1709.17 771.01 1698.92 771.187 1688.69 771.608 C 1688.44 761.469 1688.04 750.823 1689.41 740.815 z"/>
<path transform="translate(0,0)" fill="rgb(210,23,23)" d="M 1688.79 785.96 C 1702.25 785.828 1709.39 785.629 1722.37 788.603 C 1712.48 788.956 1702.06 788.891 1692.12 788.985 C 1691.32 791.398 1690.85 807.86 1690.11 812.852 L 1689.51 812.495 C 1688.44 802.697 1688.62 795.737 1688.79 785.96 z"/>
<path transform="translate(0,0)" fill="rgb(216,41,34)" d="M 1643.4 103.452 C 1644.49 103.981 1644.52 104.188 1645.45 105.044 C 1646.41 111.467 1645.96 119.324 1645.81 125.943 C 1658.29 123.931 1675.99 124.636 1688.53 125.83 C 1688.65 117.243 1688.63 110.105 1690.19 101.651 C 1691.08 110.713 1691.53 117.632 1691.69 126.73 C 1713.02 130.449 1730.05 136.844 1748.32 148.707 C 1781.67 170.156 1805.09 204.025 1813.38 242.805 C 1821.95 282.145 1814.3 323.278 1792.16 356.907 C 1767.81 394.252 1734.69 413.173 1691.85 422.212 C 1691.99 428.522 1692.98 441.131 1689.55 446.233 C 1687.83 438.475 1688.16 430.975 1688.29 423.088 C 1671.61 424.407 1662.19 424.277 1645.8 423.057 C 1645.85 428.305 1646.22 437.975 1644.19 442.418 L 1643.24 440.729 L 1644.83 440.673 L 1643.04 439.715 C 1642.13 433.934 1642.47 428.535 1642.61 422.701 C 1622.9 418.059 1609.81 414.617 1592.22 404.341 C 1556.94 383.725 1531.67 351.102 1521.62 311.289 C 1512.01 272.871 1517.94 232.213 1538.13 198.143 C 1563.36 156.103 1596.42 137.971 1642.3 126.491 C 1642.34 119.243 1642.1 110.433 1643.4 103.452 z"/>
<path transform="translate(0,0)" fill="rgb(254,254,254)" d="M 1652.42 128.588 C 1733.05 120.537 1804.94 179.385 1812.98 260.021 C 1821.02 340.658 1762.16 412.538 1681.52 420.561 C 1600.9 428.582 1529.04 369.739 1521.01 289.123 C 1512.97 208.507 1571.8 136.637 1652.42 128.588 z"/>
<path transform="translate(0,0)" fill="rgb(210,23,23)" d="M 1661.93 260.562 C 1665.5 259.275 1669.42 259.401 1672.9 260.914 C 1677.71 263.007 1681.06 267.48 1681.71 272.683 C 1682.36 277.887 1680.23 283.05 1676.09 286.267 C 1671.79 289.606 1666.01 290.327 1661.02 288.148 C 1655.45 285.713 1651.92 280.126 1652.12 274.048 C 1652.32 267.969 1656.21 262.626 1661.93 260.562 z"/>
<path transform="translate(0,0)" fill="rgb(216,41,34)" d="M 1661.02 288.148 C 1655.45 285.713 1651.92 280.126 1652.12 274.048 C 1652.32 267.969 1656.21 262.626 1661.93 260.562 C 1663.46 271.933 1662.62 276.76 1661.02 288.148 z"/>
<path transform="translate(0,0)" fill="rgb(216,41,34)" d="M 1672.9 260.914 C 1677.71 263.007 1681.06 267.48 1681.71 272.683 C 1682.36 277.887 1680.23 283.05 1676.09 286.267 C 1675.44 284.823 1673.41 284.097 1672.99 282.967 C 1670.97 277.563 1672.51 270.478 1673.7 264.989 C 1673.97 263.79 1673.22 262.069 1672.9 260.914 z"/>
<path transform="translate(0,0)" fill="rgb(216,41,34)" d="M 1689.22 235.651 L 1690.33 236.622 C 1692.93 243.782 1691.9 256.601 1691.61 264.637 C 1697.52 264.544 1715.66 263.83 1720.13 265.656 L 1720.47 267.319 C 1709.49 268.025 1699.64 267.836 1688.67 267.68 C 1687.66 257.628 1688.43 245.675 1689.22 235.651 z"/>
<path transform="translate(0,0)" fill="rgb(216,41,34)" d="M 1615.66 281.425 C 1625.53 280.807 1635.9 281.08 1645.82 281.17 C 1645.9 287.653 1646.61 309.263 1644.59 313.988 C 1641.01 306.789 1642.09 292.519 1642.28 284.055 C 1636.13 284.293 1620.95 285.328 1615.61 282.702 L 1615.66 281.425 z"/>
<path transform="translate(0,0)" fill="rgb(216,41,34)" d="M 1644.44 235.821 C 1647.11 239.453 1645.95 261.5 1645.85 267.329 C 1636.86 268.033 1625.04 267.525 1615.81 267.38 L 1614.39 266.462 C 1617.46 263.667 1636.87 264.575 1642.33 264.602 C 1642.19 255.808 1641.29 243.742 1644.44 235.821 z"/>
<path transform="translate(0,0)" fill="rgb(216,41,34)" d="M 1688.75 281.037 C 1696.86 281.063 1710.57 280.842 1718.06 282.424 C 1709.24 283.945 1700.71 283.964 1691.8 284.2 C 1692.26 296.227 1691.71 304.965 1690.11 316.83 C 1687.59 303.032 1687.83 295.153 1688.75 281.037 z"/>
</svg>