<?xml version="1.0" encoding="utf-8" ?><svg xmlns="http://www.w3.org/2000/svg" xmlns:xlink="http://www.w3.org/1999/xlink" width="1259" height="770" viewBox="0 0 1259 770"><path fill="#FEFEFE" d="M0 0L1259 0L1259 770L0 770L0 0Z"/><path fill="#535253" d="M151.972 87.5238C170.659 86.3762 198.507 87.2385 217.677 87.241L342.759 87.2315L729.544 87.1739L992.12 87.1108L1070.06 87.0912C1087.08 87.0886 1108.04 86.5242 1124.68 88.673C1152.27 92.326 1178.16 104.066 1199.09 122.411C1227.47 147.147 1244.74 182.221 1247.05 219.787C1248.36 240.129 1247.37 271.809 1247.35 292.813L1247.21 431.314L1247.04 529.673C1246.99 549.106 1248.4 572.709 1244.96 591.19C1240.25 616.128 1228.9 639.333 1212.09 658.355C1185.76 688.164 1151.54 703.708 1112.15 706.122L445.164 706.061L236.936 706.022L178.836 706.032C165.11 706.068 149.552 706.728 136.115 704.84C108.668 700.936 82.9831 689.024 62.2768 670.596C34.0836 645.609 17.0649 610.383 15.016 572.773C13.8163 552.056 14.7647 520.576 14.7813 499.253L14.9165 358.862L15.0027 265.967C15.0064 246.533 13.7567 220.863 17.2195 202.555C21.9984 177.336 33.5561 153.894 50.6525 134.743C77.7652 104.484 111.826 89.7188 151.972 87.5238Z"/><path fill="#FEFEFE" d="M841.53 92.0932L1021.11 92.0229L1076.38 91.9883C1104.16 91.987 1134.29 91.288 1160 103.614L1164.97 105.713C1199.86 124.015 1224.48 150.287 1236.33 188.468C1239.49 198.666 1241.45 209.202 1242.15 219.858C1243.41 239.3 1242.42 269.555 1242.4 289.984L1242.28 422.337L1242.14 527.327C1242.12 540.815 1242.98 566.9 1241.7 579.057C1239.92 596.437 1234.79 613.309 1226.6 628.743C1212.62 655.075 1191.57 674.716 1164.99 687.939L1160.03 690.126C1131.3 702.128 1113.39 701.264 1083.14 701.25L1026.27 701.215L841.533 701.182L835.484 701.178L692.999 701.236L691.118 701.05C677.218 701.689 648.043 701.56 634.113 701.032L633.542 700.067C632.869 683.106 633.385 661.255 633.526 643.971L633.243 641.108C633.717 636.996 633.5 628.174 633.503 623.759L633.513 591.743L633.549 488.043C631.857 488.088 630.164 488.087 628.473 488.038C579.15 486.62 539.891 446.262 539.851 396.937C539.81 347.612 579.003 307.191 628.323 305.691C628.5 305.686 628.676 305.681 628.853 305.677C628.367 296.156 628.653 284.469 628.656 274.808L628.663 221.92C628.667 179.999 628.839 137.986 628.487 96.0713C628.47 94.0099 628.703 93.3169 630.004 92.0803C631.762 91.9903 631.823 92.0401 633.469 92.7612C634.914 91.604 815.168 92.0975 835.484 92.1083L841.53 92.0932Z"/><path fill="#FEFEFE" d="M633.469 92.7612C634.914 91.604 815.168 92.0975 835.484 92.1083L835.484 701.178L692.999 701.236L691.118 701.05C677.218 701.689 648.043 701.56 634.113 701.032L633.542 700.067C632.869 683.106 633.385 661.255 633.526 643.971L633.243 641.108C633.717 636.996 633.5 628.174 633.503 623.759L633.513 591.743L633.549 488.043C631.857 488.088 630.164 488.087 628.473 488.038C579.15 486.62 539.891 446.262 539.851 396.937C539.81 347.612 579.003 307.191 628.323 305.691C628.5 305.686 628.676 305.681 628.853 305.677C628.367 296.156 628.653 284.469 628.656 274.808L628.663 221.92C628.667 179.999 628.839 137.986 628.487 96.0713C628.47 94.0099 628.703 93.3169 630.004 92.0803C631.762 91.9903 631.823 92.0401 633.469 92.7612Z"/><path fill="#2C799B" d="M633.443 305.679C682.886 306.951 722.314 347.368 722.343 396.81C722.371 446.251 682.99 486.714 633.549 488.043C631.857 488.088 630.164 488.087 628.473 488.038C579.15 486.62 539.891 446.262 539.851 396.937C539.81 347.612 579.003 307.191 628.323 305.691C628.5 305.686 628.676 305.681 628.853 305.677C630.383 305.639 631.913 305.64 633.443 305.679Z"/><path fill="#FEFEFE" d="M628.311 307.714C630.029 307.66 631.748 307.656 633.466 307.702C681.797 308.983 720.314 348.511 720.327 396.842C720.339 445.172 681.842 484.72 633.512 486.026C631.82 486.072 630.128 486.07 628.436 486.019C580.241 484.58 541.908 445.127 541.874 396.927C541.84 348.728 580.118 309.221 628.311 307.714Z"/><path fill="#C5161D" d="M628.311 307.714C630.029 307.66 631.748 307.656 633.466 307.702L633.54 391.91L628.462 391.867L628.311 307.714Z"/><path fill="#C5161D" d="M628.436 486.019L628.462 430.088C628.461 422.054 628.318 413.73 628.395 405.692C628.415 403.655 629.223 402.829 630.514 401.73C632.399 401.783 631.668 401.511 633.163 402.855C633.861 406.814 633.455 423.2 633.459 428.316L633.512 486.026C631.82 486.072 630.128 486.07 628.436 486.019Z"/><path fill="#2C799B" d="M629.218 393.636C630.385 392.959 631.827 392.961 632.992 393.643C634.157 394.324 634.865 395.58 634.846 396.929C634.827 398.278 634.084 399.513 632.9 400.162C631.101 401.148 628.842 400.504 627.834 398.717C626.826 396.93 627.442 394.665 629.218 393.636Z"/><path fill="#FEFEFE" d="M633.526 643.971C665.064 644.052 688.941 670.583 691.118 701.05C677.218 701.689 648.043 701.56 634.113 701.032L633.542 700.067C632.869 683.106 633.385 661.255 633.526 643.971Z"/><path fill="#C5161D" d="M628.853 305.677C628.367 296.156 628.653 284.469 628.656 274.808L628.663 221.92C628.667 179.999 628.839 137.986 628.487 96.0713C628.47 94.0099 628.703 93.3169 630.004 92.0803C631.762 91.9903 631.823 92.0401 633.469 92.7612L633.447 234.711C633.444 258.052 633.801 282.419 633.443 305.679C631.913 305.64 630.383 305.639 628.853 305.677Z"/><path fill="#C5161D" d="M633.243 641.108C636.27 642.771 643.917 642.782 647.835 643.927C673.756 651.501 691.886 674.191 692.999 701.236L691.118 701.05C688.941 670.583 665.064 644.052 633.526 643.971L633.243 641.108Z"/><path fill="#C5161D" d="M806.351 541.064C811.283 539.983 816.167 543.065 817.311 547.98C818.455 552.895 815.434 557.817 810.533 559.023C807.305 559.818 803.9 558.815 801.619 556.399C799.338 553.983 798.534 550.527 799.513 547.352C800.493 544.178 803.105 541.775 806.351 541.064Z"/><path fill="#FEFEFE" d="M804.515 544.224L805.312 545.162C805.585 548.115 805.896 552.536 805.094 555.352L804.049 555.664C800.392 550.899 800.995 548.499 804.515 544.224Z"/><path fill="#FEFEFE" d="M811.575 544.267C815.889 547.442 815.386 549.882 813.845 554.436L812.564 555.139L811.77 554.826C810.946 552.015 811.429 547.343 811.575 544.267Z"/><path fill="#C5161D" d="M805.078 235.053C809.823 233.263 815.123 235.641 816.938 240.375C818.752 245.11 816.399 250.42 811.673 252.257C806.912 254.108 801.554 251.736 799.727 246.968C797.899 242.2 800.299 236.856 805.078 235.053Z"/><path fill="#FEFEFE" d="M805.054 237.615C805.704 239.858 805.778 246.772 805.112 249.044L803.964 249.136C800.274 244.141 800.98 241.69 805.054 237.615Z"/><path fill="#FEFEFE" d="M811.504 238.073C816.023 240.583 815.174 243.783 813.955 247.919L812.141 248.685C810.769 246.872 811.397 240.691 811.504 238.073Z"/><path fill="#FEFEFE" d="M1164.97 105.713C1199.86 124.015 1224.48 150.287 1236.33 188.468C1239.49 198.666 1241.45 209.202 1242.15 219.858C1243.41 239.3 1242.42 269.555 1242.4 289.984L1242.28 422.337L1242.14 527.327C1242.12 540.815 1242.98 566.9 1241.7 579.057C1239.92 596.437 1234.79 613.309 1226.6 628.743C1212.62 655.075 1191.57 674.716 1164.99 687.939L1164.97 105.713Z"/><path fill="#C5161D" d="M1160 103.614L1164.97 105.713L1164.99 687.939L1160.03 690.126L1160.01 434.734C1152.31 433.235 1146.88 431.902 1140.38 427.123C1132.33 421.232 1126.97 412.377 1125.47 402.521C1123.94 392.472 1126.53 382.23 1132.65 374.113C1139.67 364.871 1148.81 360.733 1160.04 359.249L1160 103.614Z"/><path fill="#2C799B" d="M1157.26 361.423C1159.32 361.429 1158.81 361.109 1159.94 362.213C1160.33 369.4 1160.03 379.318 1160.03 386.672L1160.01 432.75C1150.97 430.946 1147.24 429.806 1139.75 424.264C1133.8 418.665 1130.01 413.438 1128.03 405.295C1125.77 396.06 1127.3 386.308 1132.27 378.202C1138.29 368.442 1146.46 363.913 1157.26 361.423Z"/><path fill="#2C799B" d="M835.484 92.1083L841.53 92.0932L841.533 701.182L835.484 701.178L835.484 92.1083Z"/><path fill="#C5161D" d="M1006.08 139.133L1007.25 140.301C1007.89 143.877 1007.6 149.475 1007.53 153.254C1018.22 152.311 1022.76 152.297 1033.46 153.272C1033.41 148.579 1033.13 145.047 1034.22 140.49L1034.73 140.702C1035.81 145.016 1035.52 149.255 1035.46 153.704C1048.4 155.838 1060.72 160.752 1071.57 168.105C1091.66 181.684 1105.52 202.701 1110.07 226.511C1114.63 250.43 1109.45 275.177 1095.7 295.273C1081.2 316.408 1060.43 328.982 1035.44 333.617C1035.52 337.277 1036.22 346.504 1034.31 349.118C1032.9 346.469 1033.43 337.519 1033.46 334.141C1023.18 334.989 1017.84 334.958 1007.53 334.14C1007.59 338.36 1007.92 343.604 1006.67 347.556C1005.02 345.896 1005.54 336.375 1005.59 333.811C991.218 330.478 982.217 327.825 969.611 319.367C949.54 305.912 935.642 285.032 930.981 261.328C926.29 237.46 931.316 212.708 944.946 192.558C959.561 171.012 980.249 158.566 1005.56 153.726C1005.57 149.424 1005.22 143.154 1006.08 139.133Z"/><path fill="#FEFEFE" d="M1015.82 154.592C1065.02 152.02 1107 189.788 1109.6 238.967C1112.2 288.146 1074.45 330.13 1025.25 332.759C976.014 335.391 933.974 297.609 931.37 248.39C928.766 199.17 966.586 157.167 1015.82 154.592Z"/><path fill="#C5161D" d="M1017.25 235.047C1022 233.268 1027.29 235.651 1029.1 240.382C1030.91 245.113 1028.56 250.418 1023.84 252.259C1019.07 254.117 1013.71 251.742 1011.88 246.967C1010.05 242.192 1012.46 236.842 1017.25 235.047Z"/><path fill="#FEFEFE" d="M1016.39 238.116L1017.13 238.797C1017.77 241.333 1017.7 246.258 1017.25 248.869L1016.29 249.167C1012.6 244.64 1013.14 242.37 1016.39 238.116Z"/><path fill="#FEFEFE" d="M1023.53 238.035C1028.29 240.009 1027.38 244.389 1025.86 248.131C1025.25 248.476 1024.7 248.664 1024.05 248.933C1022.87 247.009 1023.44 240.676 1023.53 238.035Z"/><path fill="#C5161D" d="M1034.12 219.192C1036.29 220.971 1035.47 234.161 1035.44 237.564C1038.69 237.514 1050.62 237.029 1053.13 238.227L1053.41 239.384C1047.66 239.731 1039.44 239.508 1033.49 239.534C1033.43 235.031 1032.99 223.068 1034.12 219.192Z"/><path fill="#C5161D" d="M1033.51 247.554C1037.44 247.537 1050.61 247.321 1053.47 248.802L1053.47 248.852C1047 249.506 1041.98 249.492 1035.44 249.475C1035.48 253.486 1036.24 264.749 1034.36 267.452C1032.74 265.488 1033.45 251.034 1033.51 247.554Z"/><path fill="#C5161D" d="M987.139 247.957C992.082 247.265 1002.15 247.555 1007.5 247.575C1007.54 254.198 1007.66 260.898 1007.31 267.506L1006.36 267.179C1004.95 265.348 1005.53 252.705 1005.57 249.481C1000.79 249.491 990.081 250.483 987.139 247.957Z"/><path fill="#C5161D" d="M1006.35 219.159C1008.37 221.182 1007.54 235.78 1007.5 239.493L988.666 239.473C988.459 239.346 988.125 238.799 987.957 238.561C990.281 236.923 1001.87 237.573 1005.55 237.609C1005.51 233.5 1005.09 222.597 1006.35 219.159Z"/><path fill="#C5161D" d="M1006.05 445.151C1008.58 447.27 1007.59 456.32 1007.54 459.766C1016.98 458.675 1024.07 458.726 1033.45 459.788C1033.41 454.986 1033.12 451.192 1034.23 446.535L1034.74 446.724C1035.8 451.076 1035.51 455.487 1035.46 459.976C1048.43 462.403 1059.98 466.755 1070.99 474.093C1091.26 487.579 1105.31 508.608 1109.99 532.5C1114.64 556.327 1109.63 581.025 1096.05 601.153C1081.41 622.741 1060.83 635.132 1035.49 640.044C1035.5 644.321 1035.73 651.003 1034.97 654.999C1032.41 652.105 1033.37 644.7 1033.44 640.312C1025.24 641.492 1015.74 641.4 1007.53 640.302C1007.59 644.506 1007.9 649.651 1006.68 653.597C1005.05 651.891 1005.53 642.706 1005.57 640.085C993.514 638.044 981.988 633.632 971.655 627.103C951.234 614.193 936.785 593.696 931.493 570.129C926.162 546.395 930.518 521.516 943.598 501.004C958.613 477.556 978.998 465.831 1005.57 459.966C1005.55 455.686 1005.25 449.137 1006.05 445.151Z"/><path fill="#FEFEFE" d="M1012.38 461.223C1061.43 456.752 1104.83 492.847 1109.35 541.872C1113.87 590.898 1077.81 634.317 1028.77 638.888C979.662 643.465 936.151 607.351 931.622 558.255C927.093 509.158 963.265 465.7 1012.38 461.223Z"/><path fill="#C5161D" d="M1018.52 541.062C1023.47 539.98 1028.36 543.086 1029.49 548.022C1030.61 552.958 1027.55 557.879 1022.62 559.047C1017.63 560.23 1012.63 557.119 1011.49 552.122C1010.35 547.125 1013.51 542.157 1018.52 541.062Z"/><path fill="#FEFEFE" d="M1016.64 544.314L1017.17 544.87C1017.81 547.51 1017.69 552.392 1017.22 555.126L1016.09 555.564C1012.74 550.692 1013.02 548.756 1016.64 544.314Z"/><path fill="#FEFEFE" d="M1023.61 544.206C1028.13 546.693 1027.44 550.526 1025.93 554.509L1024.69 555.172L1023.81 554.83C1022.99 552.008 1023.47 547.293 1023.61 544.206Z"/><path fill="#C5161D" d="M1033.95 526.306C1036.4 528.133 1035.48 540.012 1035.44 543.545C1039.64 543.53 1051.39 542.671 1053.83 544.912C1051.09 545.867 1037.24 545.544 1033.49 545.531C1033.46 540.697 1033.14 530.54 1033.95 526.306Z"/><path fill="#C5161D" d="M1033.56 554.459C1037.64 554.479 1050.25 554.192 1053.29 555.749C1046.74 556.482 1042.2 556.479 1035.57 556.448C1034.81 562.08 1036.27 565.42 1034.3 573.193C1033.2 570.699 1033.51 557.524 1033.56 554.459Z"/><path fill="#C5161D" d="M987.624 554.59C994.052 554.405 1001.03 554.539 1007.5 554.538C1007.53 559.563 1007.82 569.074 1007.13 573.704C1004.55 571.811 1005.52 560.156 1005.57 556.471C1002.11 556.51 990.964 556.895 988.124 555.899L987.624 554.59Z"/><path fill="#C5161D" d="M1005.96 526.363L1006.68 526.745C1008.2 528.54 1007.54 542.185 1007.5 545.476L989.249 545.463L988.502 545.308L988.186 544.449C989.953 543.123 1002.5 543.581 1005.55 543.6C1005.54 538.227 1005.35 531.576 1005.96 526.363Z"/><path fill="#FEFEFE" d="M426.539 92.1765L628.444 92.1421L628.431 234.328L628.423 280.805C628.421 288.414 628.704 298.207 628.323 305.691C579.003 307.191 539.81 347.612 539.851 396.937C539.891 446.262 579.15 486.62 628.473 488.038C630.164 488.087 631.857 488.088 633.549 488.043L633.513 591.743L633.503 623.759C633.5 628.174 633.717 636.996 633.243 641.108L633.526 643.971C633.385 661.255 632.869 683.106 633.542 700.067C633.183 700.609 632.883 700.673 632.262 701.073C629.932 701.151 630.234 701.531 628.866 700.417C628.278 695.355 628.548 686.724 628.561 681.388C628.627 670.416 628.615 659.444 628.524 648.472L628.461 701.13C610.761 701.139 588.339 701.805 571.033 701.062L569.106 701.227C522.102 700.523 473.663 701.124 426.547 701.131L420.451 701.119L233.575 701.089L178.194 701.144C146.937 701.2 131.897 702.031 102.015 690.15C100.289 689.34 98.6881 688.492 97.0064 687.604C93.9477 686.803 85.4005 681.678 82.6074 679.863C62.4487 666.818 46.0282 648.76 34.9567 627.458C27.0459 612.283 22.1255 595.73 20.463 578.7C18.9187 563.309 19.6768 536.806 19.6976 520.533L19.7745 418.865L19.8521 286.426L19.8746 243.816C19.8773 236.33 19.6043 227.368 20.0369 220.008C20.7458 208.964 22.7908 198.046 26.1272 187.493C38.0126 150.325 62.6528 123.534 97.0071 105.885L102.001 103.654C114.51 98.2219 127.772 94.7219 141.333 93.274C154.646 91.8835 169.79 92.1786 183.31 92.1844L237.904 92.184L420.501 92.1849L426.539 92.1765Z"/><path fill="#FEFEFE" d="M426.539 92.1765L628.444 92.1421L628.431 234.328L628.423 280.805C628.421 288.414 628.704 298.207 628.323 305.691C579.003 307.191 539.81 347.612 539.851 396.937C539.891 446.262 579.15 486.62 628.473 488.038C630.164 488.087 631.857 488.088 633.549 488.043L633.513 591.743L633.503 623.759C633.5 628.174 633.717 636.996 633.243 641.108L633.526 643.971C633.385 661.255 632.869 683.106 633.542 700.067C633.183 700.609 632.883 700.673 632.262 701.073C629.932 701.151 630.234 701.531 628.866 700.417C628.278 695.355 628.548 686.724 628.561 681.388C628.627 670.416 628.615 659.444 628.524 648.472L628.461 701.13C610.761 701.139 588.339 701.805 571.033 701.062L569.106 701.227C522.102 700.523 473.663 701.124 426.547 701.131L420.451 701.119C421.009 678.935 420.51 654.357 420.51 632.022L420.51 497.544L420.501 92.1849L426.539 92.1765Z"/><path fill="#2C799B" d="M420.501 92.1849L426.539 92.1765L426.547 701.131L420.451 701.119C421.009 678.935 420.51 654.357 420.51 632.022L420.51 497.544L420.501 92.1849Z"/><path fill="#FEFEFE" d="M571.033 701.062C572.144 686.592 576.979 673.963 586.86 663.167C597.523 651.449 612.451 644.508 628.286 643.905L628.524 648.472L628.461 701.13C610.761 701.139 588.339 701.805 571.033 701.062Z"/><path fill="#C5161D" d="M628.473 488.038C630.164 488.087 631.857 488.088 633.549 488.043L633.513 591.743L633.503 623.759C633.5 628.174 633.717 636.996 633.243 641.108L633.526 643.971C633.385 661.255 632.869 683.106 633.542 700.067C633.183 700.609 632.883 700.673 632.262 701.073C629.932 701.151 630.234 701.531 628.866 700.417C628.278 695.355 628.548 686.724 628.561 681.388C628.627 670.416 628.615 659.444 628.524 648.472L628.286 643.905L627.756 641.843C629.383 638.223 628.464 505.536 628.473 488.038Z"/><path fill="#C5161D" d="M627.756 641.843L628.286 643.905C612.451 644.508 597.523 651.449 586.86 663.167C576.979 673.963 572.144 686.592 571.033 701.062L569.106 701.227C569.624 687.885 574.469 675.073 582.91 664.725C594.826 650.161 609.384 643.672 627.756 641.843Z"/><path fill="#C5161D" d="M459.774 557.268C455.254 560.209 449.128 560.338 446.222 555.052C444.841 552.517 444.552 549.53 445.42 546.777C447.545 540.21 453.46 540.083 458.934 542.115C463.712 546.814 464.969 552.1 459.774 557.268Z"/><path fill="#C5161D" d="M458.934 542.115C463.712 546.814 464.969 552.1 459.774 557.268C458.986 556.416 458.614 556.25 457.668 555.595C457.352 551.197 457.44 548.682 457.657 544.339L458.934 542.115Z"/><path fill="#FEFEFE" d="M457.657 544.339C461.194 548.21 461.914 551.667 457.668 555.595C457.352 551.197 457.44 548.682 457.657 544.339Z"/><path fill="#FEFEFE" d="M449.477 544.79L450.322 545.604C450.717 548.431 450.931 552.314 450.269 555.088L449.313 555.337C446.494 550.824 446.254 549.207 449.477 544.79Z"/><path fill="#C5161D" d="M450.599 235.056C455.369 233.258 460.694 235.676 462.478 240.45C464.262 245.224 461.828 250.539 457.046 252.309C452.285 254.07 446.996 251.649 445.219 246.895C443.443 242.141 445.848 236.847 450.599 235.056Z"/><path fill="#FEFEFE" d="M449.65 238.222C451.208 240.415 450.729 245.71 450.356 248.485L449.258 248.993C446.465 244.337 446.284 242.638 449.65 238.222Z"/><path fill="#FEFEFE" d="M457.524 238.223C461.447 241.359 460.903 243.832 459.362 248.1C458.208 248.603 458.754 248.613 457.677 248.215C457.013 245.64 457.413 241.037 457.524 238.223Z"/><path fill="#FEFEFE" d="M97.0064 687.604C93.9477 686.803 85.4005 681.678 82.6074 679.863C62.4487 666.818 46.0282 648.76 34.9567 627.458C27.0459 612.283 22.1255 595.73 20.463 578.7C18.9187 563.309 19.6768 536.806 19.6976 520.533L19.7745 418.865L19.8521 286.426L19.8746 243.816C19.8773 236.33 19.6043 227.368 20.0369 220.008C20.7458 208.964 22.7908 198.046 26.1272 187.493C38.0126 150.325 62.6528 123.534 97.0071 105.885L97.0663 477.427L97.0621 615.244C97.061 639.064 97.3964 663.861 97.0064 687.604Z"/><path fill="#C5161D" d="M102.001 103.654L102 359.237C112.966 360.504 121.991 364.649 129 373.444C135.282 381.398 138.095 391.545 136.805 401.596C135.537 411.652 130.264 420.771 122.178 426.886C115.677 431.787 109.813 433.371 101.971 434.656L102.015 690.15C100.289 689.34 98.6881 688.492 97.0064 687.604C97.3964 663.861 97.061 639.064 97.0621 615.244L97.0663 477.427L97.0071 105.885L102.001 103.654Z"/><path fill="#2C799B" d="M101.995 361.179C109.987 361.999 116.593 364.401 122.757 369.71C130.105 376.071 134.564 385.135 135.118 394.837C135.752 405.542 131.925 414.046 124.954 421.884C117.456 429.088 111.88 430.885 102.015 432.744L101.995 361.179Z"/><path fill="#C5161D" d="M254.503 153.238C254.453 148.536 254.175 145.047 255.259 140.476L255.758 140.697C256.802 145.008 256.516 149.196 256.453 153.63C269.273 155.959 280.297 159.973 291.277 167.108C311.707 180.352 326.001 201.202 330.985 225.027C335.911 248.823 331.178 273.6 317.827 293.906C302.953 316.398 282.443 328.447 256.441 333.724C256.521 337.488 257.127 346.308 255.423 349.169C253.895 346.528 254.464 337.583 254.504 334.155C244.178 334.998 238.895 334.957 228.539 334.118C228.608 338.644 228.973 343.129 227.686 347.449L227.126 346.959C226.11 342.581 226.462 338.235 226.579 333.736C213.198 330.98 202.59 327.238 191.113 319.57C170.855 306.094 156.831 285.078 152.165 261.205C147.508 237.387 152.533 212.696 166.13 192.59C180.624 171.197 201.356 158.588 226.503 153.779C226.481 149.048 226.279 143.858 226.97 139.214L228.298 140.391C228.908 143.897 228.62 149.555 228.56 153.267C239.223 152.316 243.826 152.299 254.503 153.238Z"/><path fill="#FEFEFE" d="M236.981 154.594C286.188 151.996 328.188 189.758 330.801 238.947C333.415 288.135 295.651 330.132 246.446 332.759C197.22 335.386 155.187 297.618 152.573 248.409C149.959 199.2 187.753 157.193 236.981 154.594Z"/><path fill="#C5161D" d="M238.444 235.049C243.202 233.265 248.506 235.667 250.302 240.419C252.098 245.171 249.708 250.479 244.959 252.286C240.194 254.099 234.861 251.7 233.059 246.932C231.257 242.164 233.67 236.839 238.444 235.049Z"/><path fill="#FEFEFE" d="M237.528 238.165L238.285 238.952C238.745 241.794 238.838 245.881 238.218 248.695L237.19 249.054C234.183 244.306 234.128 242.723 237.528 238.165Z"/><path fill="#FEFEFE" d="M245.433 238.724C249.624 240.786 248.391 244.598 247.202 248.094L245.825 248.371C244.971 246.07 245.367 241.391 245.433 238.724Z"/><path fill="#C5161D" d="M255.189 219.188C257.31 221.646 256.477 233.488 256.437 237.549C259.88 237.513 271.179 237.137 273.933 238.111L274.475 239.387C268.41 239.687 260.716 239.507 254.524 239.54C254.466 235.276 253.984 222.763 255.189 219.188Z"/><path fill="#C5161D" d="M254.533 247.548C257.665 247.524 272.971 246.982 274.409 248.457C271.829 250.211 260.349 249.529 256.44 249.506C256.516 254.119 256.849 263.003 255.176 267.253C254.316 262.911 254.518 252.412 254.533 247.548Z"/><path fill="#C5161D" d="M209.39 247.9C214.574 247.308 223.043 247.564 228.504 247.579C228.559 252.926 228.815 262.674 228.163 267.703C225.441 265.789 226.464 253.297 226.529 249.478C221.712 249.517 215.884 249.743 211.105 249.302C209.919 249.193 210.108 248.965 209.39 247.9Z"/><path fill="#C5161D" d="M227.307 219.076C229.399 221.318 228.558 235.442 228.509 239.498L210.437 239.469L209.875 238.511C212.009 236.924 223.044 237.564 226.509 237.607C226.463 233.139 226.062 222.974 227.307 219.076Z"/><path fill="#C5161D" d="M254.495 459.801C254.442 455.129 254.181 450.806 255.32 446.26L255.823 446.746C256.758 451.125 256.498 455.515 256.446 459.998C269.465 462.164 281.865 467.108 292.801 474.494C312.862 488.071 326.7 509.063 331.269 532.846C335.807 556.684 330.701 581.348 317.07 601.427C302.386 622.936 281.778 635.235 256.465 640.075C256.485 644.238 256.711 651.004 256.022 654.844C253.44 652.719 254.438 643.806 254.491 640.336C246.256 641.543 236.797 641.358 228.557 640.281C228.608 644.993 228.931 648.886 227.721 653.458L227.143 653.015C226.122 648.661 226.423 644.519 226.508 640.053C214.235 637.733 203.673 633.932 193.061 627.232C172.484 614.294 157.936 593.667 152.658 569.946C147.367 546.213 151.77 521.351 164.89 500.876C179.782 477.675 200.199 465.805 226.568 460.026C226.46 455.439 226.307 449.694 226.951 445.231C227.326 445.476 227.941 446.089 228.297 446.418C228.913 449.973 228.615 455.998 228.557 459.78C237.169 458.683 245.885 458.69 254.495 459.801Z"/><path fill="#FEFEFE" d="M233.631 461.215C282.688 456.771 326.071 492.9 330.557 541.936C335.044 590.972 298.938 634.369 249.888 638.895C200.78 643.426 157.305 607.281 152.813 558.187C148.322 509.093 184.516 465.664 233.631 461.215Z"/><path fill="#C5161D" d="M246.485 557.94C242.58 560.317 237.523 559.475 234.6 555.962C231.676 552.45 231.767 547.326 234.815 543.92C237.862 540.514 242.946 539.854 246.763 542.368C249.401 544.106 250.966 547.073 250.91 550.231C250.853 553.389 249.183 556.298 246.485 557.94Z"/><path fill="#C5161D" d="M246.763 542.368C249.401 544.106 250.966 547.073 250.91 550.231C250.853 553.389 249.183 556.298 246.485 557.94C246.32 556.857 246.072 556.686 245.499 555.705C245.382 551.748 245.475 548.439 245.625 544.505L246.763 542.368Z"/><path fill="#FEFEFE" d="M245.625 544.505C249.223 548.481 249.52 551.691 245.499 555.705C245.382 551.748 245.475 548.439 245.625 544.505Z"/><path fill="#FEFEFE" d="M238.071 544.248C238.81 546.05 238.814 553.193 238.149 555.207L236.962 555.271C234.07 550.279 234.2 548.487 238.071 544.248Z"/><path fill="#C5161D" d="M254.946 526.305C257.437 528.154 256.481 539.905 256.437 543.529C259.884 543.487 271.132 543.066 273.92 544.129L274.29 545.408C267.886 545.586 260.967 545.489 254.519 545.524C254.499 540.629 254.187 530.574 254.946 526.305Z"/><path fill="#C5161D" d="M254.598 554.456C259.079 554.602 270.654 553.785 274.097 555.112L274.151 555.848C272.54 556.98 260.151 556.481 257.235 556.457C254.723 560.099 258.336 569.539 255.503 573.047C253.8 571.003 254.535 557.918 254.598 554.456Z"/><path fill="#C5161D" d="M209.719 554.591C215.685 554.392 222.469 554.535 228.5 554.523C228.552 559.72 228.848 568.935 228.127 573.708C225.471 571.818 226.472 560.133 226.533 556.471C223.119 556.498 212.822 556.843 210.083 555.914L209.719 554.591Z"/><path fill="#C5161D" d="M226.943 526.315C229.61 527.703 228.558 541.967 228.508 545.485L210.996 545.461C210.346 545.261 210.569 545.265 209.987 544.577C212.221 542.975 223.028 543.566 226.511 543.595C226.494 538.084 226.305 531.703 226.943 526.315Z"/><path fill="#030101" d="M1242.52 58.6273C1242.51 57.2609 1242.51 52.1576 1243.28 51.2675C1244.92 54.1408 1244.4 63.8442 1244.26 67.262L1242.99 67.0332C1242.2 65.5273 1242.48 62.2431 1242.5 60.3378L838.498 60.3391C838.549 63.4049 838.672 64.1784 837.572 67.0164L837.022 66.8435C836.95 64.6914 837.046 63.1932 836.284 61.1701C833.305 59.6638 704.689 60.3185 694.118 60.3188L425.437 60.3305C425.448 60.9815 425.452 61.6326 425.45 62.2837C425.442 64.0275 425.526 65.538 424.362 66.6923C423.291 64.7831 423.553 62.6445 423.539 60.3673C378.354 59.782 331.926 60.3217 286.659 60.3199L19.4472 60.3423C19.4608 62.1691 19.6616 65.1495 18.7262 66.6049C17.0027 63.8125 17.0968 53.2764 18.5638 50.222C19.8754 51.9636 19.4903 56.2043 19.4866 58.6116L423.568 58.5756C423.526 56.8552 423.067 52.5347 424.682 51.6659C425.768 53.6203 425.454 56.2716 425.412 58.5715L685.814 58.6289L781.128 58.6367C799.053 58.6387 818.814 59.0306 836.633 58.367C836.586 56.5377 836.242 52.5458 837.715 51.4395C838.802 53.6203 838.496 56.0676 838.45 58.5497L1242.52 58.6273Z"/><path fill="#272626" d="M883.48 725.511C889.236 728.393 895.861 731.513 901.452 734.562L883.502 743.446L883.466 735.512L610.559 735.468L552.19 735.533C546.988 735.54 524.659 735.938 521.3 734.873C523.803 732.977 543.526 733.696 548.202 733.695L597.438 733.687L796.746 733.68L854.255 733.681C860.629 733.678 877.889 733.311 883.274 734.106C883.41 731.144 883.508 728.474 883.48 725.511Z"/><path fill="#030101" d="M521.3 734.873C523.803 732.977 543.526 733.696 548.202 733.695L597.438 733.687L796.746 733.68L854.255 733.681C860.629 733.678 877.889 733.311 883.274 734.106C879.346 735.614 806.818 734.812 798.606 734.812L619.092 734.794C586.669 734.79 553.69 734.474 521.3 734.873Z"/></svg>