<?xml version="1.0" encoding="UTF-8"?>
<svg version="1.1" xmlns="http://www.w3.org/2000/svg" width="463" height="420">
<path d="M0 0 C5.26173917 0.01132182 10.52330884 0.00720467 15.78504187 -0.0054062 C74.91056786 -0.1433414 133.7164441 2.15653965 192.63611609 7.38570708 C193.59094885 7.46927459 194.54578161 7.55284209 195.5295487 7.63894194 C200.92341142 8.11270385 206.31418772 8.60929452 211.70221716 9.14550322 C213.30232495 9.30341942 214.90295544 9.45614119 216.50409704 9.60320586 C218.66496049 9.80450964 220.82209663 10.02885136 222.97986609 10.26070708 C224.17804968 10.38187896 225.37623327 10.50305083 226.61072546 10.62789458 C230.24281643 11.53767592 231.35270383 12.44640123 233.63611609 15.38570708 C234.13636208 18.43103671 234.13636208 18.43103671 234.13668734 22.08523196 C234.14495859 23.09876593 234.14495859 23.09876593 234.15339693 24.13277534 C234.16704345 26.40760341 234.15206849 28.68134844 234.13732153 30.95615691 C234.14121257 32.5991465 234.14685143 34.24213273 234.15409243 35.88511097 C234.16889334 40.40822725 234.15863849 44.93099704 234.14435571 49.45410234 C234.13327615 54.32872662 234.14517846 59.20330108 234.15419775 64.07792205 C234.16815252 73.63028646 234.1605577 83.18251895 234.14552217 92.73487712 C234.12868945 103.85073086 234.13186883 114.96655148 234.13561625 126.08241402 C234.14149886 145.91050783 234.12730717 165.73853819 234.10266882 185.56661528 C234.07874364 204.82282437 234.07166531 224.07894869 234.08216101 243.33516997 C234.09356046 264.28712881 234.09551258 285.23904842 234.08106291 306.19100678 C234.07953702 308.42346809 234.07801666 310.6559294 234.07650191 312.88839072 C234.07574409 313.98690452 234.07498628 315.08541832 234.0742055 316.21722041 C234.06945539 323.97241974 234.07131922 331.72760159 234.07556731 339.48280066 C234.08048494 348.92817756 234.07454997 358.37347417 234.05467301 367.81883264 C234.04477557 372.64143027 234.03972223 377.46390545 234.04756552 382.28650969 C234.05459068 386.69615835 234.04789246 391.10555925 234.02996189 395.5151751 C234.02589675 397.11536278 234.02695156 398.71557281 234.03348076 400.31575233 C234.04156518 402.48147711 234.03140065 404.64635362 234.01643282 406.81202334 C234.01540369 408.01774542 234.01437456 409.2234675 234.01331425 410.46572661 C233.63611609 413.38570708 233.63611609 413.38570708 232.26424754 415.27317059 C224.28647208 420.72455249 203.16596406 415.28160713 194.02680212 414.42003936 C166.25856689 411.8193274 138.49245959 409.74353128 110.63611609 408.38570708 C109.57991064 408.33350005 108.5237052 408.28129302 107.43549353 408.22750396 C11.18472681 403.53101881 -86.0271933 405.28452875 -206.38707727 416.17417449 C-209.15158122 416.46999638 -211.89726277 416.62826893 -214.67638391 416.69820708 C-215.66251673 416.73558989 -216.64864954 416.77297271 -217.66466516 416.81148833 C-221.21583825 416.25131776 -222.16849887 415.20360988 -224.36388391 412.38570708 C-224.86528057 409.34794015 -224.86528057 409.34794015 -224.86724848 405.70459288 C-224.87596912 404.69404087 -224.87596912 404.69404087 -224.88486594 403.66307366 C-224.89951841 401.39500571 -224.88555743 399.12801114 -224.87181848 396.85995024 C-224.87642536 395.2217974 -224.88277683 393.58364869 -224.89072746 391.94550866 C-224.9074734 387.4357318 -224.89915064 382.92629217 -224.88678259 378.41651386 C-224.87775587 373.55617961 -224.89168997 368.69590456 -224.90270227 363.83558196 C-224.92051757 354.31096179 -224.91663412 344.78646748 -224.90505171 335.26184231 C-224.89602948 327.52311617 -224.89478813 319.78442537 -224.89914697 312.04569548 C-224.89975991 310.94557392 -224.90037284 309.84545236 -224.90100434 308.71199378 C-224.90228321 306.47733383 -224.90358006 304.24267389 -224.90489471 302.00801396 C-224.91630933 281.0383857 -224.90317298 260.06882731 -224.88169324 239.0992105 C-224.86382147 221.09425118 -224.86692533 203.08939501 -224.88536829 185.08443755 C-224.90675943 164.19142872 -224.91521061 143.29848117 -224.90291923 122.40546292 C-224.90164499 120.17888152 -224.90038751 117.9523001 -224.89914697 115.72571868 C-224.89852987 114.6301097 -224.89791277 113.53450072 -224.89727697 112.40569147 C-224.8938188 104.67349527 -224.89966246 96.94133783 -224.90906519 89.20914763 C-224.92026705 79.79013307 -224.91728336 70.3712519 -224.89594221 60.95225269 C-224.88540735 56.14367192 -224.88135131 51.3353138 -224.89453882 46.52673453 C-224.90641829 42.12869 -224.89997411 37.73107543 -224.87862861 33.33307016 C-224.87414359 31.73824785 -224.87647115 30.14338954 -224.88613176 28.54859018 C-224.89822324 26.38747756 -224.8858973 24.22785491 -224.86724848 22.06682128 C-224.86659907 20.86451668 -224.86594966 19.66221208 -224.86528057 18.42347401 C-224.26104252 14.76263118 -223.29474495 13.59471573 -220.36388391 11.38570708 C-217.26256555 10.62789458 -217.26256555 10.62789458 -213.52404016 10.26070708 C-212.83238764 10.18847426 -212.14073511 10.11624144 -211.42812341 10.04181975 C-209.09565065 9.80426759 -206.76161913 9.59424001 -204.42638391 9.38570708 C-202.73206034 9.22309449 -201.03780756 9.05974286 -199.34362024 8.89571685 C-193.68655193 8.35852085 -188.02567801 7.87011306 -182.36388391 7.38570708 C-181.38842615 7.30085051 -180.41296839 7.21599395 -179.4079513 7.12856597 C-119.64496826 1.93598832 -59.95922705 -0.14393513 0 0 Z M-51.43102258 36.60993499 C-57.13927626 36.73848734 -62.84508452 36.94050348 -68.55138391 37.13570708 C-69.77802759 37.17694701 -71.00467127 37.21818694 -72.26848596 37.26067656 C-93.28117706 37.98217779 -114.25713572 39.11068343 -135.23888391 40.44820708 C-135.9313912 40.49229201 -136.62389848 40.53637694 -137.33739084 40.58179778 C-149.28330407 41.34050048 -149.28330407 41.34050048 -161.22466272 42.16649932 C-163.37172554 42.31642594 -165.52026147 42.44624711 -167.66960901 42.55877227 C-168.72645899 42.62339659 -169.78330896 42.68802092 -170.87218469 42.75460356 C-171.80942377 42.80446913 -172.74666284 42.8543347 -173.7123031 42.90571135 C-179.44444522 43.94335792 -183.1525128 47.58322694 -186.8375333 51.8870002 C-189.75765569 56.66737624 -189.32419985 61.75724184 -189.25276941 67.2145645 C-189.26368935 68.49799082 -189.27460928 69.78141713 -189.28586012 71.10373515 C-189.31499021 74.65074968 -189.30068377 78.19644017 -189.27895659 81.74345845 C-189.26308668 85.57454382 -189.28758057 89.40540508 -189.30681604 93.23644561 C-189.33791536 100.735298 -189.33123182 108.23365951 -189.31092755 115.73253101 C-189.29510796 121.82785059 -189.29297953 127.92303276 -189.30059427 134.01836699 C-189.3016669 134.88643672 -189.30273953 135.75450645 -189.30384467 136.64888132 C-189.30608278 138.41244123 -189.30835228 140.17600111 -189.31065281 141.93956095 C-189.33060565 158.4700095 -189.30767567 175.00018616 -189.27005024 191.53059012 C-189.23877648 205.70931993 -189.24420888 219.88764856 -189.27648157 234.06637114 C-189.31395648 250.53831923 -189.32868311 267.01002912 -189.30719572 283.48201388 C-189.30496592 285.23902494 -189.30276532 286.99603604 -189.30059427 288.75304717 C-189.29951434 289.61749219 -189.29843441 290.48193722 -189.29732176 291.37257755 C-189.29128202 297.45939959 -189.30147026 303.54607033 -189.31795114 309.63286895 C-189.33759951 317.05247716 -189.33223914 324.47156712 -189.29498594 331.89111608 C-189.27660918 335.67565077 -189.26934796 339.45932196 -189.29253 343.24384993 C-189.31729498 347.34893229 -189.28769656 351.45184158 -189.25276941 355.55684966 C-189.26838446 356.74984773 -189.28399951 357.94284581 -189.30008775 359.17199534 C-189.18579534 366.08919055 -188.11645198 369.96738936 -183.30264574 375.02685469 C-179.65223426 377.58537956 -176.06535206 377.01636937 -171.82091516 376.47555083 C-170.90429605 376.39505996 -169.98767694 376.31456908 -169.0432815 376.23163909 C-167.1112668 376.0616819 -165.18061778 375.87550025 -163.25164026 375.67397612 C-158.69667373 375.21927854 -154.13199766 374.97265504 -149.56310266 374.70211333 C-147.68858562 374.58022998 -145.81415623 374.45699189 -143.93981165 374.33248442 C-124.60718241 373.06451095 -105.27868755 372.06411635 -85.91603845 371.38711089 C-82.32584022 371.26156231 -78.73586602 371.13056389 -75.14586633 370.99947661 C-65.09200603 370.64294276 -55.05349305 370.34047366 -44.99279016 370.35836333 C-42.78689257 370.34750899 -40.58102437 370.33410678 -38.3751449 370.32009429 C-36.44778598 370.32307723 -34.52069481 370.37549105 -32.59410852 370.43014067 C-28.16797069 370.4080084 -24.73167358 370.3866859 -21.07646936 367.71172637 C-15.44220305 361.6158315 -14.24040924 357.33480695 -14.50450891 349.14742583 C-14.50242426 347.58264243 -14.50242426 347.58264243 -14.50029749 345.98624724 C-14.50060707 342.68043174 -14.55358286 339.37842817 -14.61388391 336.07320708 C-14.65284963 332.75077793 -14.68019833 329.42926781 -14.68462366 326.10660857 C-14.68945902 324.04637413 -14.71522834 321.98605705 -14.76433557 319.92640227 C-14.80896105 313.11405811 -14.80896105 313.11405811 -12.75548548 309.753627 C-9.59841806 307.94788499 -7.40186947 307.89922924 -3.77013391 307.92476958 C-2.49267298 307.92863677 -1.21521204 307.93250396 0.10095984 307.93648833 C0.76337683 307.94889556 1.42579382 307.96130278 2.10828406 307.97408599 C4.1297937 308.0105929 6.14946739 308.01510513 8.17127234 308.01461333 C19.24183393 308.11515324 19.24183393 308.11515324 22.63611609 310.38570708 C23.83221492 312.77790474 23.74238206 314.20805366 23.71448523 316.8761856 C23.70860892 317.8079814 23.7027326 318.73977721 23.69667822 319.69980925 C23.68829428 320.7111946 23.67991034 321.72257994 23.67127234 322.76461333 C23.6749876 324.90459209 23.68091884 327.04456792 23.68885046 329.18453521 C23.69937982 332.56005238 23.69878425 335.93346373 23.66028601 339.30880278 C23.62700223 342.56606366 23.64483715 345.81985641 23.67127234 349.07711333 C23.637442 350.57293692 23.637442 350.57293692 23.60292822 352.09897918 C23.71294247 358.581128 25.12274219 363.06125886 29.8058396 367.6861679 C35.96049439 371.3819471 43.28340656 370.77758021 50.25330359 370.81539458 C52.0128957 370.85757078 53.77239333 370.90386415 55.53177649 370.95400542 C59.26076781 371.05257548 62.98893252 371.12487144 66.71887976 371.17556304 C72.52656245 371.25497514 78.33185282 371.39259366 84.13806921 371.54342192 C86.07367514 371.59321236 88.00928305 371.64292564 89.94489294 371.69256133 C90.89906859 371.71708247 91.85324423 371.74160361 92.83633429 371.76686782 C95.71850492 371.83874358 98.60075413 371.9048414 101.48310095 371.96923369 C116.72717272 372.31516726 131.91947975 373.01293932 147.13611609 374.01070708 C149.0994942 374.13555677 151.06287308 374.26039449 153.02625281 374.3852188 C165.06107579 375.16341006 177.08586358 376.06451057 189.10095984 377.10445708 C193.32304041 375.90744194 195.52203756 373.15717084 197.63611609 369.38570708 C198.51516328 365.12627886 198.45481309 360.94520626 198.41147619 356.60790557 C198.42224727 355.31787214 198.43301835 354.02783871 198.44411582 352.69871336 C198.47298842 349.12871551 198.46454873 345.55964248 198.44978219 341.9895944 C198.44031375 338.13529739 198.46534287 334.28119976 198.48581702 330.42696685 C198.52019499 322.88024888 198.52187277 315.33386393 198.51139121 307.78708799 C198.50330525 301.65219062 198.50619789 295.5173916 198.51688772 289.38249892 C198.51838457 288.5090317 198.51988141 287.63556449 198.52142362 286.73562857 C198.5244866 284.96111886 198.5275633 283.18660918 198.53065355 281.41209953 C198.55810458 264.77388863 198.54722788 248.13586585 198.52428313 231.49765925 C198.50442037 216.28179391 198.53029564 201.06641505 198.57815151 185.85062476 C198.62693762 170.22110753 198.6461482 154.59181686 198.63284606 138.96222502 C198.62586213 130.18975024 198.63032181 121.41764954 198.66534811 112.64523238 C198.69479781 105.17692931 198.69605728 97.70926367 198.66120629 90.24097307 C198.64418381 86.431909 198.63988739 82.62398337 198.6705094 78.81497878 C198.70332752 74.68155592 198.67390697 70.55087714 198.63852698 66.41747588 C198.65773699 65.21892663 198.676947 64.02037738 198.69673914 62.78550845 C198.56394944 55.24675991 196.96939467 51.37645302 191.64384383 45.99396521 C188.5677057 43.52987406 185.74025802 43.22145194 181.92908484 42.93673247 C180.96533438 42.86311492 180.00158392 42.78949736 179.0086289 42.71364897 C177.95757468 42.63765471 176.90652045 42.56166045 175.82361609 42.48336333 C174.72369833 42.40132659 173.62378058 42.31928984 172.49053198 42.23476714 C168.87275362 41.96735643 165.25451874 41.70702641 161.63611609 41.44820708 C160.39939154 41.35888915 159.16266699 41.26957122 157.88846594 41.17754668 C134.81834677 39.51939293 111.74971884 38.23433657 88.63611609 37.38570708 C87.84398718 37.35648162 87.05185827 37.32725615 86.23572546 37.29714507 C76.92034381 36.95724271 67.60637863 36.69039411 58.28699499 36.49117583 C54.8282818 36.39125848 51.38306178 36.21379077 47.92908484 36.01070708 C45.95645041 35.92685873 43.98379567 35.8434863 42.01111609 35.76070708 C41.15864294 35.68900298 40.3061698 35.61729888 39.42786413 35.54342192 C34.68906434 35.40130144 31.72911753 36.45053652 28.10877234 39.55758208 C22.035276 47.23422713 23.57977552 57.99265651 23.69861609 67.26070708 C23.69933746 70.23662434 23.68911638 73.21233936 23.67675024 76.18822783 C23.67316117 78.03237286 23.67943959 79.87656955 23.69667822 81.7206375 C23.70255453 82.55225402 23.70843085 83.38387053 23.71448523 84.24068755 C23.72307059 84.97077025 23.73165594 85.70085295 23.74050146 86.45305938 C23.63611609 88.38570708 23.63611609 88.38570708 22.63611609 91.38570708 C19.64711212 92.88020907 16.57153789 92.56907126 13.29236609 92.58883208 C12.56746985 92.59453215 11.84257361 92.60023223 11.09571081 92.60610503 C9.56248185 92.61555311 8.0292326 92.62208825 6.49597937 92.62594146 C4.14519932 92.63566949 1.79528543 92.66670198 -0.55529016 92.69820708 C-2.04356621 92.70473496 -3.53184852 92.70998627 -5.02013391 92.71383208 C-5.72537195 92.72617888 -6.43060999 92.73852568 -7.15721887 92.75124663 C-9.13927454 92.74215239 -9.13927454 92.74215239 -12.36388391 92.38570708 C-14.44002524 89.27149508 -14.60658064 88.66475299 -14.55577844 85.14889067 C-14.5498266 84.29725341 -14.54387476 83.44561614 -14.53774256 82.56817168 C-14.52419733 81.64944274 -14.5106521 80.73071379 -14.49669641 79.78414458 C-14.49750356 77.82971593 -14.50016766 75.87528733 -14.50450891 73.92086333 C-14.50255013 70.8460651 -14.4890707 67.77316828 -14.44298548 64.69869536 C-13.8324906 51.51548813 -13.8324906 51.51548813 -18.23107141 39.48726958 C-24.21171752 34.42556075 -32.20640887 35.7106688 -39.52751917 36.21065825 C-43.49383286 36.45544291 -47.45855815 36.52598536 -51.43102258 36.60993499 Z " fill="#FEC307" transform="translate(226.36388391256332,1.6142929196357727)"/>
<path d="M0 0 C1.6975518 -0.00956978 1.6975518 -0.00956978 3.42939758 -0.01933289 C4.63887558 -0.02044571 5.84835358 -0.02155853 7.09448242 -0.02270508 C8.35201828 -0.02603348 9.60955414 -0.02936188 10.90519714 -0.03279114 C13.5621597 -0.03784688 16.21901991 -0.04063335 18.87597656 -0.04003906 C22.25819091 -0.03993764 25.64019439 -0.05357867 29.02235889 -0.07081127 C32.27555852 -0.08469436 35.52875723 -0.08402237 38.78198242 -0.08520508 C40.58709038 -0.09598335 40.58709038 -0.09598335 42.42866516 -0.10697937 C53.003677 -0.0784685 61.95449306 0.90057707 70.13745117 8.14526367 C75.88176332 15.00652541 78.39037455 21.52278129 78.38037109 30.51171875 C78.38226944 31.22299927 78.38416779 31.93427979 78.38612366 32.66711426 C78.38980531 34.99978937 78.37916903 37.33214788 78.36791992 39.66479492 C78.36672705 41.29050154 78.36627519 42.91620886 78.36653137 44.54191589 C78.3649713 47.93863272 78.35671458 51.33524344 78.34326172 54.73193359 C78.32620476 59.09463483 78.32244956 63.45722037 78.3232069 67.81995106 C78.32293571 71.17155571 78.31746379 74.52313487 78.31020546 77.87473106 C78.30701592 79.48435969 78.30505072 81.0939912 78.30431175 82.70362282 C78.30215502 84.94439303 78.29342742 87.18503779 78.28271484 89.42578125 C78.27890305 90.70230057 78.27509125 91.97881989 78.27116394 93.29402161 C78.13745117 96.14526367 78.13745117 96.14526367 77.13745117 97.14526367 C74.61651041 97.2337411 72.12314224 97.26053669 69.60229492 97.24291992 C68.47241905 97.2407975 68.47241905 97.2407975 67.31971741 97.2386322 C64.90475557 97.23301743 62.48988516 97.2204625 60.07495117 97.20776367 C58.44148897 97.20275057 56.80802531 97.19818734 55.17456055 97.1940918 C51.16215532 97.18304321 47.14981877 97.16576873 43.13745117 97.14526367 C43.13198273 96.03106049 43.13198273 96.03106049 43.12640381 94.89434814 C43.08852021 87.89043381 43.03166404 80.88698968 42.95354843 73.88342667 C42.91405665 70.28286174 42.88187696 66.68254197 42.86645508 63.08178711 C42.851299 59.60609777 42.81687407 56.13108234 42.76914215 52.65569305 C42.74710746 50.68603247 42.74497652 48.71618187 42.74310303 46.74639893 C42.7233844 45.54545593 42.70366577 44.34451294 42.68334961 43.10717773 C42.67446716 42.05016663 42.66558472 40.99315552 42.65643311 39.90411377 C42.00719392 36.45283066 40.89474419 35.26158277 38.13745117 33.14526367 C34.92084078 32.53037821 34.92084078 32.53037821 31.32495117 32.61401367 C30.67421631 32.61018677 30.02348145 32.60635986 29.35302734 32.60241699 C27.98134813 32.59970291 26.60961673 32.60702915 25.23803711 32.6237793 C23.14343432 32.64520248 21.05226033 32.62396731 18.95776367 32.59838867 C17.62181863 32.60103205 16.28587572 32.60615724 14.94995117 32.61401367 C13.73952148 32.61852539 12.5290918 32.62303711 11.28198242 32.62768555 C7.40219016 33.26628489 6.47034855 34.01249075 4.13745117 37.14526367 C3.74668268 39.92469851 3.6008053 42.30723389 3.63624573 45.0849762 C3.63071133 45.89073701 3.62517693 46.69649783 3.61947483 47.52667564 C3.60584791 50.2300104 3.62084821 52.93242516 3.63574219 55.63574219 C3.63195978 57.57233066 3.62646038 59.50891642 3.61936951 61.44549561 C3.60538839 66.70780372 3.61660295 71.96978586 3.63308072 77.23207593 C3.6469115 82.73332822 3.64047347 88.2345612 3.63694763 93.73582458 C3.63424418 102.97383897 3.64773357 112.21172353 3.67089844 121.44970703 C3.69751685 132.1391205 3.69925326 142.82831697 3.68751007 153.51775223 C3.67674199 163.7907067 3.68291124 174.06358247 3.69706535 184.33653069 C3.70283278 188.71328524 3.70273656 193.08998233 3.69799995 197.46673775 C3.69323792 202.61726308 3.70329969 207.76754986 3.72495461 212.91802979 C3.73053293 214.8115197 3.73097824 216.7050325 3.72600174 218.59852409 C3.72007383 221.17679497 3.73250551 223.75433033 3.74977112 226.33253479 C3.74376107 227.0875846 3.73775103 227.84263441 3.73155886 228.62056452 C3.77903647 232.59642749 3.77903647 232.59642749 5.466506 236.10830593 C8.22833896 237.8222485 10.86481654 237.55400294 14.07104492 237.57885742 C14.74539078 237.58409927 15.41973663 237.58934113 16.11451721 237.59474182 C17.53922144 237.60115806 18.96397868 237.59983006 20.38867188 237.59130859 C22.56435939 237.58280507 24.7374142 237.61154709 26.9128418 237.64331055 C28.29890872 237.64492294 29.68498028 237.6443443 31.07104492 237.64135742 C32.95907837 237.64413696 32.95907837 237.64413696 34.88525391 237.64697266 C38.82124245 237.03977677 39.74388171 236.27145457 42.13745117 233.14526367 C42.74322781 229.99050973 42.74322781 229.99050973 42.6550293 226.4206543 C42.66203857 225.75349899 42.66904785 225.08634369 42.67626953 224.39897156 C42.69383748 222.19939225 42.6822327 220.00110546 42.66870117 217.80151367 C42.67139647 216.26981357 42.67527921 214.73811515 42.68029785 213.2064209 C42.68619121 209.99853197 42.67763574 206.79108899 42.65893555 203.58325195 C42.63614541 199.47380324 42.64926946 195.36539946 42.6732254 191.25598907 C42.68768817 188.09377181 42.68307535 184.93180179 42.67271423 181.76957703 C42.67004824 180.2545306 42.67331229 178.73946163 42.68263245 177.22444153 C42.69280678 175.10564835 42.67728848 172.98854082 42.6550293 170.86987305 C42.65184692 169.66504272 42.64866455 168.4602124 42.64538574 167.21887207 C42.04023769 163.55700646 41.039871 162.38196951 38.13745117 160.14526367 C36.16418401 159.54921774 36.16418401 159.54921774 34.09838867 159.60620117 C33.35331055 159.58299805 32.60823242 159.55979492 31.84057617 159.53588867 C30.6881543 159.5281543 30.6881543 159.5281543 29.51245117 159.52026367 C21.37731604 159.38512854 21.37731604 159.38512854 19.13745117 157.14526367 C18.87866211 154.37963867 18.87866211 154.37963867 18.87182617 150.89526367 C18.86924805 149.64745117 18.86666992 148.39963867 18.86401367 147.11401367 C18.87174805 145.80432617 18.87948242 144.49463867 18.88745117 143.14526367 C18.87584961 141.18073242 18.87584961 141.18073242 18.86401367 139.17651367 C18.8665918 137.92870117 18.86916992 136.68088867 18.87182617 135.39526367 C18.87408203 134.24541992 18.87633789 133.09557617 18.87866211 131.91088867 C19.13745117 129.14526367 19.13745117 129.14526367 21.13745117 127.14526367 C23.54190063 126.90475464 23.54190063 126.90475464 26.59692383 126.91821289 C27.73795563 126.91836395 28.87898743 126.91851501 30.05459595 126.91867065 C31.90932022 126.93415451 31.90932022 126.93415451 33.80151367 126.94995117 C35.69503067 126.95419601 35.69503067 126.95419601 37.62680054 126.95852661 C40.98392061 126.96784236 44.34077029 126.98581532 47.69781494 127.00793457 C51.12298239 127.02838817 54.54817776 127.03752727 57.97338867 127.04760742 C64.69481788 127.06969909 71.41611891 127.1031999 78.13745117 127.14526367 C78.20765885 142.63584767 78.26049681 158.1264197 78.29288769 173.61712551 C78.30832982 180.81039703 78.32936827 188.00356945 78.36376953 195.19677734 C78.39375351 201.46935647 78.41304545 207.74186379 78.41971666 214.0145126 C78.42361378 217.33317133 78.43431133 220.65157787 78.45464134 223.97018242 C78.47647722 227.68288124 78.47941543 231.39515726 78.47802734 235.10791016 C78.48881317 236.1976413 78.499599 237.28737244 78.51071167 238.41012573 C78.46950009 248.62380499 76.41337308 255.72011956 69.32885742 263.19604492 C63.29306312 268.56478174 56.88392191 270.25719709 48.95117188 270.30639648 C47.6991951 270.31600403 46.44721832 270.32561157 45.15730286 270.33551025 C43.79261458 270.34035994 42.42792417 270.34463835 41.06323242 270.34838867 C40.37205008 270.35121605 39.68086773 270.35404343 38.96874046 270.35695648 C35.30793248 270.37192942 31.64716369 270.38116963 27.98632812 270.38549805 C24.22508455 270.39096659 20.46420593 270.41496536 16.70307636 270.44347 C13.79378759 270.46220238 10.88458467 270.46730767 7.97524071 270.46883392 C6.58990684 270.47183932 5.20457371 270.47979546 3.8192997 270.4930191 C-6.45321278 270.58404578 -15.25256624 270.22726107 -23.17504883 263.08276367 C-23.97555664 262.39053711 -24.77606445 261.69831055 -25.60083008 260.98510742 C-30.96082396 254.25502875 -32.45950762 246.84495612 -32.3704834 238.42344666 C-32.37672336 237.49836967 -32.38296332 236.57329268 -32.38939238 235.62018305 C-32.40523039 232.54876839 -32.39275424 229.47815753 -32.38012695 226.40673828 C-32.38555211 224.19328858 -32.39267697 221.97984249 -32.40136719 219.7664032 C-32.41955538 213.77475604 -32.41255175 207.78338531 -32.39985085 201.7917335 C-32.38970117 195.51256123 -32.39912187 189.23341212 -32.40539551 182.95423889 C-32.41313085 171.73738216 -32.40072666 160.52063904 -32.38035816 149.30380905 C-32.36248459 139.14665049 -32.36559732 128.98967481 -32.3840332 118.83251953 C-32.40546882 107.01725948 -32.41339196 95.20208789 -32.40158415 83.38680464 C-32.3953562 77.13964515 -32.39449461 70.89261147 -32.4077301 64.64546013 C-32.41930449 58.77252124 -32.41123341 52.89992698 -32.38815308 47.02702522 C-32.38287478 44.87481381 -32.38436465 42.72257327 -32.39320374 40.57037354 C-32.40417721 37.62655961 -32.39037351 34.68384164 -32.3704834 31.74009705 C-32.37940629 30.8937795 -32.38832917 30.04746196 -32.39752245 29.17549843 C-32.28993471 20.93442158 -29.28102814 13.80819794 -23.69848633 7.71557617 C-16.78530274 1.80259787 -8.89821192 0.03426446 0 0 Z " fill="#FEC307" transform="translate(103.862548828125,72.854736328125)"/>
<path d="M0 0 C1.78005432 -0.00287018 1.78005432 -0.00287018 3.59606934 -0.00579834 C6.09383355 -0.00715345 8.59160497 -0.00350431 11.08935547 0.00488281 C14.89436794 0.01559156 18.69890832 0.00496419 22.50390625 -0.0078125 C24.9401052 -0.00649079 27.37630386 -0.00392815 29.8125 0 C30.9408728 -0.00404846 32.06924561 -0.00809692 33.23181152 -0.01226807 C43.71393507 0.04941003 52.32994654 1.13054488 60.40625 8.265625 C66.20082804 15.07549236 68.66042986 22.03375717 68.64916992 31.01123047 C68.65378487 32.95761917 68.65378487 32.95761917 68.65849304 34.94332886 C68.65159843 36.33982525 68.6443317 37.73631984 68.63671875 39.1328125 C68.63552527 40.57772785 68.63507414 42.02264399 68.6353302 43.46755981 C68.63377263 46.48167847 68.62553408 49.49567713 68.61206055 52.50976562 C68.5949799 56.38032145 68.5912492 60.25074687 68.59200573 64.12133598 C68.59173457 67.09806572 68.58626354 70.07476675 68.57900429 73.05148697 C68.57581618 74.4796947 68.57384988 75.90790569 68.57311058 77.33611679 C68.57095372 79.32288531 68.56142635 81.30964176 68.55151367 83.29638672 C68.54770187 84.42777069 68.54389008 85.55915466 68.53996277 86.724823 C68.40625 89.265625 68.40625 89.265625 67.40625 90.265625 C64.88530924 90.35410243 62.39194107 90.38089801 59.87109375 90.36328125 C58.74121788 90.36115883 58.74121788 90.36115883 57.58851624 90.35899353 C55.1735544 90.35337876 52.75868399 90.34082383 50.34375 90.328125 C48.71028779 90.3231119 47.07682414 90.31854866 45.44335938 90.31445312 C41.43095415 90.30340454 37.41861759 90.28613006 33.40625 90.265625 C33.40078156 89.28296661 33.40078156 89.28296661 33.39520264 88.28045654 C33.35341887 81.46704529 33.28410202 74.65431025 33.19873047 67.84130859 C33.17049044 65.29808309 33.1492911 62.75476933 33.13525391 60.21142578 C33.11386723 56.55715647 33.06723609 52.90395186 33.015625 49.25 C33.01439636 48.11133484 33.01316772 46.97266968 33.01190186 45.79949951 C32.99218323 44.73870178 32.9724646 43.67790405 32.95214844 42.58496094 C32.94326599 41.65230408 32.93438354 40.71964722 32.92523193 39.75872803 C32.2488425 36.50946553 30.97719864 35.30288253 28.40625 33.265625 C25.4838598 32.6528073 25.4838598 32.6528073 22.25 32.734375 C20.46916016 32.72664063 20.46916016 32.72664063 18.65234375 32.71875 C17.41613281 32.73421875 16.17992187 32.7496875 14.90625 32.765625 C13.05193359 32.74242188 13.05193359 32.74242188 11.16015625 32.71875 C9.97292969 32.72390625 8.78570312 32.7290625 7.5625 32.734375 C6.47775391 32.73888672 5.39300781 32.74339844 4.27539062 32.74804688 C0.63268251 33.40517257 -0.34233271 34.35467226 -2.59375 37.265625 C-3.21346831 40.49399819 -3.21346831 40.49399819 -3.14306641 44.15795898 C-3.15328827 44.84301514 -3.16351013 45.52807129 -3.17404175 46.23388672 C-3.20179273 48.49352169 -3.19992444 50.75193387 -3.1953125 53.01171875 C-3.20308879 54.5858658 -3.21175862 56.16000867 -3.22128296 57.73414612 C-3.2361983 61.03196827 -3.23563212 64.32936217 -3.22509766 67.62719727 C-3.21350776 71.8489683 -3.247369 76.0689845 -3.293787 80.29046535 C-3.32328349 83.54110421 -3.32500255 86.79132141 -3.31876755 90.04207039 C-3.31979292 91.59819071 -3.33024923 93.15433495 -3.35039139 94.71032524 C-3.37513733 96.88933431 -3.36154298 99.06493993 -3.33837891 101.24389648 C-3.33963776 102.48203598 -3.34089661 103.72017548 -3.3421936 104.99583435 C-2.31527765 109.48221139 -0.37209304 110.76680445 3.40625 113.265625 C5.9235662 114.38092495 5.9235662 114.38092495 8.53442383 114.93139648 C9.50595901 115.17192245 10.4774942 115.41244843 11.47846985 115.66026306 C12.51295761 115.89999344 13.54744537 116.13972382 14.61328125 116.38671875 C15.69324875 116.65396255 16.77321625 116.92120636 17.88591003 117.19654846 C22.48285845 118.33387425 27.08864836 119.43316113 31.69458008 120.53344727 C35.06704007 121.34502997 38.43379348 122.17777297 41.80078125 123.01171875 C42.82919632 123.2494249 43.85761139 123.48713104 44.91719055 123.73204041 C52.91466541 125.71861153 59.50502201 128.76927332 64.84375 135.203125 C68.25851255 141.89605959 68.70112658 147.80222952 68.6809082 155.18896484 C68.68601913 156.16064102 68.69113007 157.1323172 68.69639587 158.13343811 C68.71024485 161.33120968 68.70933856 164.52876458 68.70703125 167.7265625 C68.71092086 169.95944295 68.71525607 172.19232266 68.72001648 174.42520142 C68.72746868 179.10054932 68.72719471 183.7758217 68.72192383 188.45117188 C68.71613173 194.42851287 68.73305902 200.40554374 68.7562685 206.38283348 C68.77103437 210.99321282 68.77187362 215.60351798 68.76875877 220.21391678 C68.76927059 222.41702514 68.77448191 224.6201378 68.78457069 226.82322311 C68.79697244 229.91018295 68.79012069 232.99654509 68.77856445 236.08349609 C68.78620819 236.98456589 68.79385193 237.88563568 68.80172729 238.81401062 C68.72440533 248.20693585 66.18448819 256.54387213 59.40625 263.265625 C52.60192219 268.28163589 47.00837488 270.36967334 38.56542969 270.42675781 C37.4136322 270.43636536 36.26183472 270.4459729 35.07513428 270.45587158 C33.22036469 270.4622464 33.22036469 270.4622464 31.328125 270.46875 C29.40640472 270.47730011 29.40640472 270.47730011 27.44586182 270.48602295 C24.73587653 270.49650389 22.02592064 270.50236519 19.31591797 270.50585938 C15.86520685 270.51133106 12.41489288 270.53534247 8.96430588 270.56383133 C5.64808755 270.5870839 2.33192051 270.58891567 -0.984375 270.59375 C-2.21279114 270.6060968 -3.44120728 270.6184436 -4.70684814 270.63116455 C-15.74963338 270.60270327 -24.19834805 268.66102695 -32.21875 260.640625 C-38.93688404 251.89977631 -39.15798736 242.52791672 -39.01953125 231.88671875 C-39.01459796 230.423675 -39.01130521 228.96062489 -39.00956726 227.49757385 C-39.00197896 224.45414587 -38.98156476 221.41119698 -38.95043945 218.36791992 C-38.91054949 214.46044718 -38.89277426 210.55328231 -38.88313007 206.64562893 C-38.87319091 202.91345043 -38.85331195 199.18134728 -38.83203125 195.44921875 C-38.8286355 194.73622557 -38.82523975 194.02323238 -38.8217411 193.28863335 C-38.81022294 191.28540082 -38.79069824 189.28221907 -38.77075195 187.27905273 C-38.76090775 186.13895248 -38.75106354 184.99885223 -38.74092102 183.82420349 C-38.59375 181.265625 -38.59375 181.265625 -37.59375 180.265625 C-35.15714554 180.16479736 -32.74950299 180.12589897 -30.3125 180.1328125 C-29.58381714 180.13185577 -28.85513428 180.13089905 -28.10437012 180.12991333 C-26.5609529 180.12923165 -25.01753283 180.13108512 -23.47412109 180.13525391 C-21.103776 180.14060238 -18.73362041 180.13530858 -16.36328125 180.12890625 C-14.86718708 180.12956703 -13.37109303 180.1308482 -11.875 180.1328125 C-11.16146362 180.13078827 -10.44792725 180.12876404 -9.71276855 180.12667847 C-4.70870191 180.15067309 -4.70870191 180.15067309 -3.59375 181.265625 C-3.48650545 182.90668241 -3.4475181 184.55225949 -3.43603516 186.19677734 C-3.42577301 187.24811859 -3.41551086 188.29945984 -3.40493774 189.38265991 C-3.39763641 190.52739777 -3.39033508 191.67213562 -3.3828125 192.8515625 C-3.35474637 195.25000685 -3.32608192 197.64844427 -3.296875 200.046875 C-3.25555864 203.84798 -3.21869234 207.6489551 -3.19238281 211.45019531 C-3.16485956 215.10509377 -3.11898689 218.7593929 -3.0703125 222.4140625 C-3.06705963 223.55475189 -3.06380676 224.69544128 -3.06045532 225.87069702 C-3.04388885 226.92834259 -3.02732239 227.98598816 -3.01025391 229.07568359 C-2.99812363 230.47347549 -2.99812363 230.47347549 -2.98574829 231.89950562 C-2.52043813 234.70813878 -1.88079459 235.61115647 0.40625 237.265625 C3.45554015 237.73001294 3.45554015 237.73001294 6.9375 237.6640625 C8.22269531 237.66792969 9.50789063 237.67179688 10.83203125 237.67578125 C11.83484131 237.66635498 11.83484131 237.66635498 12.85791016 237.65673828 C14.8994433 237.64067854 16.93899708 237.65659171 18.98046875 237.67578125 C20.26566406 237.67191406 21.55085938 237.66804687 22.875 237.6640625 C24.64520508 237.65898682 24.64520508 237.65898682 26.45117188 237.65380859 C29.31751785 237.49412987 29.31751785 237.49412987 31.06469727 236.1832428 C33.11469013 233.25297946 32.80314371 230.74003414 32.82617188 227.19555664 C32.83464142 226.47977951 32.84311096 225.76400238 32.85183716 225.02653503 C32.8752443 222.65943657 32.87622849 220.29298671 32.875 217.92578125 C32.88209945 216.28055053 32.88979813 214.63532229 32.89807129 212.99009705 C32.91152466 209.54093545 32.91308113 206.09200277 32.90722656 202.64282227 C32.90133002 198.22275117 32.93191497 193.80377834 32.97234344 189.38391972 C32.99819409 185.98581526 33.0011003 182.58797615 32.99745178 179.18978691 C32.99914557 177.56027911 33.00881309 175.93075938 33.02659607 174.30134773 C33.04873551 172.02184717 33.03911282 169.74458085 33.02148438 167.46508789 C33.02353882 166.1684169 33.02559326 164.87174591 33.02770996 163.53578186 C32.68670113 160.13871045 32.68670113 160.13871045 30.1822052 157.91366577 C27.51242693 156.32866056 25.37853233 155.42612785 22.37573242 154.69750977 C20.91347481 154.33176598 20.91347481 154.33176598 19.42167664 153.95863342 C18.37889053 153.71060471 17.33610443 153.46257599 16.26171875 153.20703125 C15.17796463 152.93600082 14.09421051 152.6649704 12.97761536 152.38572693 C8.35563759 151.22994674 3.7265979 150.10380232 -0.90258789 148.97729492 C-4.28828849 148.1487339 -7.66949187 147.30338382 -11.05078125 146.45703125 C-12.60585136 146.08802452 -12.60585136 146.08802452 -14.19233704 145.71156311 C-21.7838078 143.80669523 -28.79104945 141.0260505 -33.96875 134.890625 C-34.43023437 134.36726562 -34.89171875 133.84390625 -35.3671875 133.3046875 C-38.91577054 127.40545072 -38.88686823 121.10873163 -38.8684082 114.43408203 C-38.87351913 113.47215942 -38.87863007 112.51023682 -38.88389587 111.51916504 C-38.89774352 108.35385842 -38.89683866 105.18877073 -38.89453125 102.0234375 C-38.89842093 99.81297729 -38.90275617 97.60251783 -38.90751648 95.39205933 C-38.9149684 90.76378962 -38.91469492 86.13559621 -38.90942383 81.50732422 C-38.9036318 75.59051615 -38.92055898 69.67402138 -38.9437685 63.75726509 C-38.95853522 59.19320871 -38.95937351 54.62922726 -38.95625877 50.06515121 C-38.95677054 47.88437149 -38.96198108 45.70358741 -38.97207069 43.52283096 C-38.98447411 40.46700214 -38.97761973 37.41177695 -38.96606445 34.35595703 C-38.97370819 33.46423798 -38.98135193 32.57251892 -38.98922729 31.65377808 C-38.9103118 22.16193789 -36.25002501 14.16285114 -29.59375 7.265625 C-20.93123874 0.06514096 -10.82604885 -0.03884252 0 0 Z " fill="#FEC307" transform="translate(317.59375,72.734375)"/>
<path d="M0 0 C5.09328959 3.66399229 7.71454458 8.02554873 8.75390625 14.26171875 C8.83514654 20.64923646 8.0308799 25.29118181 3.75390625 30.26171875 C-0.84258896 34.75606962 -4.88044911 37.12775493 -11.41015625 37.328125 C-17.25172321 36.99690213 -21.9715613 35.33181704 -26.24609375 31.26171875 C-30.33398091 25.48708204 -32.15055261 20.27127491 -31.24609375 13.26171875 C-29.83916558 6.68775349 -26.75353153 3.00726927 -21.24609375 -0.73828125 C-14.73843068 -4.60770254 -6.36777821 -3.66629655 0 0 Z " fill="#FEC307" transform="translate(242.24609375,185.73828125)"/>
</svg>
