<?xml version="1.0" encoding="utf-8"?>
<!-- Generator: Adobe Illustrator 28.3.0, SVG Export Plug-In . SVG Version: 6.00 Build 0)  -->
<svg version="1.1" id="Слой_1" xmlns="http://www.w3.org/2000/svg" xmlns:xlink="http://www.w3.org/1999/xlink" x="0px" y="0px"
	 viewBox="0 0 60 28" style="enable-background:new 0 0 60 28;" xml:space="preserve">
<style type="text/css">
	.st0{fill:#FFFFFF;stroke:#000000;stroke-width:1.6;}
	.st1{fill:none;stroke:#000000;stroke-width:3;stroke-linecap:round;stroke-linejoin:round;stroke-miterlimit:10;}
	.st2{fill:#FFFFFF;}
</style>
<path class="st0" d="M14,0.8h32c7.3,0,13.2,5.9,13.2,13.2v0c0,7.3-5.9,13.2-13.2,13.2H14C6.7,27.2,0.8,21.3,0.8,14v0
	C0.8,6.7,6.7,0.8,14,0.8z"/>
<path class="st1" d="M36.2,12.6c-2.7-2.2-3.1-2.5-5.8-4.8c-2.6,2.2-3,2.5-5.6,4.8"/>
<path class="st2" d="M27.6,18.3c2.5,0,3.2,0,5.7,0L27.6,18.3z"/>
<path class="st1" d="M27.6,18.3c2.5,0,3.2,0,5.7,0"/>
<path class="st1" d="M30.5,15.5c0,2.2,0,3.5,0,5.7"/>
</svg>
